<svg version="1.2" xmlns="http://www.w3.org/2000/svg" viewBox="0 0 612 792" width="612" height="792">
	<style>
		.s0 { fill: #ffffff } 
	</style>
	<g id="Layer 1">
		<g>
			<path class="s0" d="m115.88 266.89q-0.2 0.08-0.45 0.11-0.83 0.08-1.74-0.05-1.19-0.17-2.02-0.33l-53.49-10.58q-0.9-0.18-2.03-0.47-0.86-0.22-1.59-0.61-0.24-0.12-0.38-0.27l0.99-4.99-8.7-1.72-0.64 3.25c-0.31 1.59-1.08 5.55-1.81 9.38q-0.29 1.47-0.56 2.91l-0.53 2.77c-0.29 1.48-0.52 2.7-0.66 3.4l-0.48 2.43 2.2 1.15c4.34 2.26 9.04 4.78 13.99 7.48 4.97 2.71 10.06 5.51 15.13 8.31 4.69 2.59 9.66 5.34 15.2 8.41q3.09 1.71 5.92 3.28-3.54 0.61-7.14 1.22c-5.7 0.97-11.5 1.93-17.24 2.84-5.69 0.91-11.47 1.81-17.17 2.66-5.63 0.85-11.03 1.62-16.05 2.29l-2.35 0.31-2.27 11.48h-0.06l0.06 0.02-1.71 8.65 8.96 1.77 0.42-3.55c0.04-0.34 0.13-0.49 0.43-0.67l0.12-0.07 0.11-0.08c0 0 0.19-0.13 0.47-0.27l27.14 5.37c9.16 1.81 18.62 3.71 28.11 5.64h0.02q0.86 0.18 2.05 0.63 1.05 0.4 1.93 1.05 0.72 0.53 1.1 1.15c0.02 0.03 0.04 0.06 0 0.23l-0.87 4.39 8.63 1.71 4.56-23.04-8.63-1.71-0.91 4.62q-0.41 0.23-0.96 0.35-0.93 0.21-2.07 0.23-1.24 0.02-2.4-0.07c-7.99-1.58-15.97-3.15-23.73-4.65q-2.66-0.51-5.38-1.05 5.28-0.86 10.58-1.7c9.59-1.54 19.31-3.28 28.89-5.17l2.16-0.43 2.2-10.71 0.64-0.11-0.55-0.31 0.82-4.01-43.28-24.15q4.53 0.9 9.02 1.8c9.14 1.83 18.75 3.75 28.57 5.69q0.8 0.15 1.99 0.47 0.9 0.24 1.63 0.62 0.23 0.12 0.38 0.26l-0.99 5 8.63 1.71 5.44-27.52-8.63-1.71-0.99 4.99z"/>
			<path class="s0" d="m152.5 216.54c-0.77-0.86-1.62-1.8-2.62-2.88q-1.44-1.56-2.87-3.12-1.49-1.61-2.53-2.66l-2.92-2.93-3.88 6.08 0.62 1.57q0.74 1.89 1.54 4.12 0.69 1.94 0.99 4.02 0.27 1.96 0 3.98-0.24 1.77-1.4 3.57l-5.24 8.23-21.54-13.73 5.99-9.4q0.53-0.83 1.29-1.49 0.78-0.68 1.61-1.07 0.64-0.3 1.18-0.32c0.12 0 0.22 0.01 0.36 0.1l2.79 1.78 4.31-6.76-17.46-11.13-4.31 6.76 2.8 1.78c0.14 0.09 0.22 0.19 0.3 0.36q0.25 0.56 0.28 1.29 0.03 0.85-0.22 1.76-0.26 0.92-0.82 1.81l-6.03 9.47-22.58-14.39 5.24-8.23q1.15-1.8 2.65-2.77 1.72-1.12 3.61-1.69 2.02-0.62 4.06-0.83 2.26-0.23 4.32-0.31l1.73-0.07 3.9-6.12-3.88-1.41c-0.93-0.34-2.07-0.72-3.48-1.17q-2.01-0.65-4.04-1.29-2.09-0.67-3.71-1.16-1.62-0.5-2.17-0.68l-2.46-0.82-25.7 40.33 7.42 4.73 2.65-4.16q0.3 0 0.64 0.11 0.89 0.27 1.75 0.75 1.12 0.63 1.81 1.07l45.39 28.93q0.7 0.44 1.72 1.18 0.82 0.59 1.42 1.27 0.24 0.27 0.37 0.53l-2.65 4.16 7.42 4.73 25.7-40.33-1.78-1.88q-0.38-0.4-1.53-1.68z"/>
			<path class="s0" d="m212.11 166.95c-3.43-4.42-6.72-8.69-9.79-12.69q-4.79-6.23-9.51-12.39c-3.2-4.16-6.42-8.34-9.57-12.41l-9.73-12.56q-0.56-0.94-1.1-2.06-0.51-1.04-0.75-2.02-0.14-0.56-0.13-1.01l3.72-2.89-5.39-6.95-18.56 14.39 5.39 6.95 3.54-2.74c0.17-0.13 0.23-0.12 0.3-0.12q0.68 0.04 1.39 0.43 1.03 0.54 1.93 1.34 0.95 0.82 1.46 1.48l27.52 35.5-66.46-23.6-1.4 1.18-13.08 10.14 5.39 6.95 3.42-2.65q0.74 0.21 1.32 0.45l16.96 21.89c5.66 7.3 11.52 14.9 17.41 22.59h0.01q0.53 0.7 1.13 1.84 0.53 0.99 0.76 2.06 0.19 0.88 0.07 1.59c0 0.04-0.01 0.07-0.15 0.18l-3.54 2.74 5.39 6.95 18.56-14.39-5.39-6.95-3.72 2.89q-0.45-0.09-0.96-0.37-0.85-0.44-1.71-1.19-0.94-0.8-1.77-1.64c-5.39-6.87-10.72-13.71-15.86-20.33l-8.69-11.21 60.44 21.82 9.35-7.59 0.08-0.06 0.68-0.53 3.06-2.37-2.03-2.62z"/>
			<path class="s0" d="m273.09 100.23c-1.98-7.16-3.77-13.77-5.34-19.65q-0.08-0.7-0.06-1.5 0-0.71 0.18-1.35 0.08-0.31 0.24-0.52l4.78-1.32-2.36-8.55-22.57 6.22 2.36 8.55 4.76-1.31q0.46 0.35 0.92 0.9 0.68 0.84 1.22 1.91 0.56 1.13 0.83 2.07v0.03c1.63 5.71 3.39 11.96 5.22 18.59l5.84 21.17c0.81 2.93 1.12 5.5 0.92 7.64-0.18 2.02-0.74 3.72-1.71 5.2q-1.46 2.23-4.27 3.84c-2.08 1.19-4.65 2.22-7.65 3.04-2.68 0.74-5.04 1.02-7.01 0.83-1.88-0.18-3.46-0.69-4.84-1.57q-2.05-1.32-3.53-3.8-1.65-2.79-2.73-6.69l-11.33-41.08q-0.24-0.88-0.49-2.03-0.18-0.87-0.17-1.7 0-0.26 0.08-0.46l4.9-1.35-2.36-8.55-26.97 7.44 2.36 8.55 4.84-1.34q0.15 0.14 0.29 0.36 0.44 0.69 0.73 1.54 0.39 1.13 0.62 1.99l11.33 41.08c1.3 4.73 3.2 8.56 5.64 11.39 2.5 2.89 5.48 4.97 8.86 6.16q4 1.41 8.66 1.42 1.05 0 2.13-0.07c3.67-0.25 7.62-0.95 11.75-2.09 4.1-1.13 7.69-2.61 10.69-4.4 3.17-1.89 5.69-4.22 7.49-6.91 1.84-2.75 2.93-5.98 3.26-9.59 0.31-3.45-0.13-7.38-1.32-11.67l-6.19-22.44z"/>
			<path class="s0" d="m368.98 95.44c-1.2-5.15-3.31-9.71-6.28-13.55-2.97-3.85-6.81-7.01-11.43-9.38-4.54-2.35-9.85-3.86-15.76-4.5l-30.29-3.27-0.94 8.75 4.97 0.53q0.14 0.28 0.2 0.63 0.15 0.91 0.1 1.9-0.06 1.29-0.15 2.09l-5.75 53.29q-0.09 0.8-0.3 2.07-0.17 0.98-0.5 1.84-0.13 0.33-0.33 0.56l-4.97-0.53-0.95 8.74 30.29 3.27q2.85 0.31 5.56 0.31 5.77 0 10.82-1.38c5.02-1.36 9.45-3.66 13.17-6.81 3.71-3.14 6.75-7.14 9.02-11.89 2.22-4.66 3.68-10.05 4.33-16.04 0.64-5.98 0.37-11.57-0.81-16.63zm-15.62 14.86c-0.41 3.74-1.3 7.42-2.67 10.94-1.33 3.43-3.11 6.45-5.3 8.97-2.14 2.45-4.71 4.37-7.64 5.72-2.83 1.3-6.11 1.78-9.75 1.44l-8.06-0.88 6.35-58.84 8.06 0.87c3.64 0.44 6.75 1.6 9.24 3.45 2.57 1.92 4.67 4.34 6.23 7.18 1.6 2.93 2.71 6.24 3.27 9.85 0.59 3.71 0.67 7.51 0.27 11.3z"/>
			<path class="s0" d="m426.83 159.48l-6.52-3.08-1.48 0.81q-1.79 0.98-3.89 2.05-1.84 0.94-3.86 1.48c-1.26 0.34-2.6 0.51-3.95 0.49q-1.79-0.03-3.72-0.94l-8.82-4.17 10.92-23.09 10.08 4.77q0.89 0.41 1.64 1.1 0.77 0.69 1.26 1.46 0.38 0.6 0.47 1.13c0.02 0.14 0 0.23-0.06 0.37l-1.42 3 7.25 3.43 8.85-18.72-7.25-3.43-1.42 3q-0.1 0.22-0.31 0.34-0.53 0.32-1.25 0.44-0.83 0.14-1.77 0-0.95-0.14-1.9-0.59l-10.15-4.8 11.45-24.21 8.82 4.17q1.93 0.92 3.08 2.28 1.31 1.57 2.13 3.37 0.87 1.93 1.33 3.92 0.51 2.21 0.85 4.24l0.29 1.71 6.56 3.1 0.91-4.03c0.22-0.97 0.46-2.14 0.73-3.6q0.39-2.08 0.77-4.17c0.27-1.45 0.49-2.7 0.69-3.83q0.28-1.68 0.4-2.23l0.51-2.54-43.23-20.45-3.76 7.95 4.46 2.11q0.03 0.3-0.03 0.65-0.15 0.91-0.53 1.83-0.48 1.19-0.83 1.93l-23.01 48.66q-0.35 0.74-0.96 1.86-0.48 0.88-1.08 1.57-0.24 0.27-0.48 0.43l-4.46-2.11-3.76 7.95 43.23 20.45 1.64-2q0.35-0.43 1.47-1.73c0.75-0.87 1.58-1.83 2.53-2.96q1.37-1.62 2.73-3.24 1.42-1.67 2.32-2.85l2.54-3.26z"/>
			<path class="s0" d="m510.96 160.25q-0.68-3.28-2.25-6.45-1.52-3.07-3.66-5.89c-1.39-1.85-2.88-3.55-4.41-5.07l-21.44-21.2-6.24 6.31 3.62 3.58q-0.04 0.21-0.16 0.44-0.39 0.72-0.98 1.4-0.79 0.89-1.41 1.53l-38.34 38.77q-0.57 0.58-1.49 1.4-0.69 0.63-1.41 1.02-0.24 0.13-0.44 0.16l-3.61-3.57-6.19 6.25 19.89 19.67 6.19-6.26-3.62-3.57q0.03-0.2 0.16-0.44 0.38-0.72 1-1.43 0.79-0.91 1.39-1.5l13.16-13.31q-0.29 3.06-0.63 6.13c-0.38 3.46-0.7 6.95-0.94 10.37-0.24 3.49-0.3 7-0.17 10.42 0.14 3.51 0.59 6.95 1.34 10.23 0.77 3.35 1.96 6.61 3.53 9.69 1.61 3.16 3.81 6.13 6.55 8.83l2.27 2.25 6.28-5.92-2.19-2.4c0 0-0.4-0.57-0.73-2.29-0.32-1.72-0.55-3.82-0.66-6.24q-0.18-3.75-0.08-8.37c0.08-3.1 0.2-6.3 0.38-9.52 0.18-3.2 0.4-6.45 0.65-9.66q0.16-1.96 0.31-3.89 2.06 0.96 4.13 1.62c3.01 0.96 5.99 1.45 8.86 1.45 2.93 0.01 5.73-0.5 8.32-1.49 2.65-1.02 5.01-2.55 7-4.57q2.12-2.15 3.65-4.99 1.52-2.81 2.31-6.38 0.79-3.54 0.06-7.11zm-14.98-1.22q-0.14 2.44-1.26 4.74-1.16 2.41-3.33 4.61-2.02 2.03-4.26 2.81c-1.49 0.52-2.99 0.66-4.57 0.43q-2.55-0.36-5.23-1.83-2.8-1.54-5.5-4.2l-2.37-2.35 18.18-18.38 4.66 4.61q2.05 2.32 2.93 4.74c0.6 1.62 0.84 3.2 0.75 4.82z"/>
			<path class="s0" d="m493.52 251.52q0.09-0.19 0.27-0.38 0.57-0.59 1.36-1.09 1.02-0.65 1.82-1.1l47.5-26.61q0.8-0.45 1.89-0.98 0.83-0.4 1.64-0.58 0.25-0.06 0.46-0.04l2.49 4.44 7.67-4.3-13.67-24.41-7.67 4.3 2.49 4.44q-0.09 0.19-0.27 0.38-0.58 0.59-1.35 1.09-1.04 0.66-1.82 1.1l-47.5 26.61q-0.78 0.44-1.89 0.98-0.84 0.41-1.64 0.59-0.25 0.06-0.46 0.04l-2.49-4.44-7.67 4.3 13.67 24.41 7.67-4.3-2.49-4.44z"/>
			<path class="s0" d="m577.55 270.59l-4.27 4.17c-0.36 0.35-0.54 0.51-0.63 0.58q-0.36 0.3-0.79 0.67-0.29 0.24-0.71 0.57-0.15 0.12-0.32 0.25l-61.95-6.03h-0.12c-0.28-0.02-0.78-0.1-1.53-0.39q-1.04-0.39-1.98-1.02-0.9-0.6-1.56-1.34-0.37-0.41-0.47-0.85l-1.06-4.82-8.51 1.88 5.21 23.61 8.59-1.89-0.72-3.24c-0.16-0.72-0.22-1.21-0.24-1.54l19.92 1.96 4.41 19.97-17.1 11.3-0.97-4.41-8.59 1.89 5.91 26.79 8.7-1.92-0.85-3.32c-0.13-0.5-0.06-0.82 0.28-1.26 0.51-0.66 1.58-1.75 3.77-3.25 9.52-6.2 19.31-12.51 29.1-18.75 9.87-6.29 19.58-12.82 28.86-19.42l1.79-1.27zm-37.89 26.79l-2.91-13.18 20.02 1.94z"/>
		</g>
		<g>
			<path class="s0" d="m455.34 497.6c1.3-1.79 6.53-12.06 4.3-15.25-1.97-2.82-7.81-1.61-6.83 1.46 0.57 2.03-0.57 8.45-1.66 13.41-0.19 0.79 1.9 2.87 4.19 0.38z"/>
			<path class="s0" d="m141.31 473.78c5.98 0.49 7.27-9.9 4.62-10.67-10.24-3.17-32.09-5.65-53.21-9.49 7.62-2.82 26.67-6.04 35.14-6.65 5.42-0.39 5.14-12.81 1.92-13.28-8.07-1.17-25.78-3.56-35.81-4.19 1.76-0.53 3.49-1.34 5.01-2.14 10.18-5.34 15.24-15.16 12.65-24.01-0.28-1.13-0.77-2.25-1.33-3.32-5.49-10.47-21.77-19.7-34.01-16.33-1.08 0.27-2.16 0.74-3.13 1.25-3.29 1.72-5.6 4.51-5.16 7.12 0.16 0.9 0.93 1.38 1.09 1.1 4.12-5.01 17.7-0.94 24.94 4.49 3.9 2.96 7.21 6.72 9.06 10.27 1.78 3.39 2.19 6.51 0.71 8.36-7.12 6.48-31.53 3.97-47.22 6.41-1.4 0.25-3.13 0.86-4.73 1.7-2.89 1.51-5.53 3.88-5.48 6.31 0 1.96 1.26 3.95 1.9 3.03 0.52-0.57 0.76-0.89 4.01-1.12 14.81-0.8 50.82 3.38 64.19 5.11-15.24 2.89-36.58 6.42-43.07 9.83-2.24 1.18-5.63 8.94-2.14 9.95 6.74 0.59 30.83 2.29 54.24 6.01-16.09 0.29-39.08 2.63-49.14 8.2-5.45 3.05-6.4 7.67-5.43 9.33 0.89 1.89 2.94 3.07 3.22 2.24 0.16-0.48 0.56-1.86 1.15-3.26 8.62-4.42 46.53-7.52 66.01-6.25z"/>
			<path class="s0" d="m180.34 517.9c2.11 0.66 13.52 2.32 15.83-0.81 2.04-2.77-0.97-7.91-3.57-6-1.74 1.19-8.19 2.17-13.24 2.72-0.81 0.08-2.11 2.72 0.98 4.09z"/>
			<path class="s0" d="m267.03 535.61c-2.91 1.32-16.58 14.9-22.58 21.4-1.02-2.44-3.42-5.43-5.6-6.05-7.1-1.83-18.73 5.51-25.75 12.48-1.84 0.6-3.86 1.25-5.88 1.84-6.79 2.02-13.4 3.31-14.5 1.5-0.74-1.94 15.38-12.01 20.04-15.77l0.13-0.24c1.78-2.23 1.86-8.65-0.92-9.72-2.09-0.71-15.36 1.64-24.79 5.64 4.02-3.29 9.7-6.72 10.81-7.87 1.71-1.55-2.05-8.17-3.33-7.63-3.87 1.73-12.93 7.52-19.7 13.37-7.95 1.33-20.66 2.6-25.74-1.14-1.05-0.78-1.74-1.74-2.03-2.96-0.27-1.1 0.08-2.3 0.98-3.67 12.45 5.81 26.39 0.24 29.78-4.35 2.68-3.65 0.64-10.99-3.38-14.18-4.66-3.53-18.55-1-27.35 6.84-9.16-0.02-21.23-0.93-21.67-3.45-0.42-2.36 7.25-6.85 12.96-9.47 16.19 3.08 44-1.23 50.86-8.69 3.36-3.66 1.39-10.89-1.49-13.54-1.09-1-2.55-1.72-4.31-1.99-10.58-1.43-42.32 9.4-56.96 20.52-7.93-0.57-18.38-2.17-22.09-6.39-0.86-0.97-1.34-2.06-1.36-3.32-0.03-1.13 0.56-2.23 1.73-3.37 10.95 8.31 25.75 5.8 30.03 2.03 3.39-2.99 2.95-10.6-0.3-14.57-4.48-5.21-23.18-4.94-33.16 4.55-6.76 6.42-2.94 17.31-0.64 19.92 3.76 5.08 12.74 6.05 20.94 5.6q-0.11 0.12-0.22 0.24c-2.44 2.92-2.73 9.91 1.67 15.79 3.12 3.31 12.07 2.54 19.75 1.01-4.94 7.67 0.98 17.31 3.75 19.35 4.96 4.35 14.54 3.12 22.7 0.75q-0.77 0.92-1.35 1.8c-1.55 2.35-0.5 9.07 1.63 10.61 0.83 0.66 1.14-0.1 1.35-0.5 10.87-9.28 25.32-13.47 30.52-14.9-5.6 3.47-10.04 7.36-12.61 10.71-2.33 3.06-4.5 11.75 1.52 15.79 3.78 2.37 11.19-0.39 17.49-3.66q-0.41 0.79-0.62 1.47c-1.73 5.24 1.79 11.75 3.68 12.38 2.75 1.1 9.81-3.61 20.96-11.83-2.3 3.62-4.33 7.81-5.67 11.85-1.56 4.72-2.16 9.29-0.9 12.66 0.78 2.07 4.5 4.65 4.45 2.34-0.02-0.77-1.62-1.21-0.03-5.45 1.93-5.27 6.64-12.28 11.67-18.62 9.29-11.7 23.36-24.86 30.28-31.34 1.97-1.54-2.27-7.8-4.75-7.77zm-92.72-9.67c0.68 0.83-12.95 9.22-23.27 7.69 6.82-5.88 20.22-11.18 23.27-7.69zm12.58-29.52c0.91 1.58-21.74 12.35-43.05 12.54 8.24-4.34 40.77-16.61 43.05-12.54zm-54.15-6.11c0.48 0.96-14.61 6.28-24.37 2.6 7.9-4.31 22.13-6.65 24.37-2.6zm107.94 70.6c-8.1 6.75-22.93 15.56-24.86 15.01-3.3-0.52 15.71-18.62 24.21-18.28 0.52 0.08 0.78 1.78 0.65 3.27z"/>
			<path class="s0" d="m321.36 569.99c0.64-2.98-3.06-8.53-5.23-8.46-2.78 0.34-6.78 0.48-10.61 0.45-2.78-0.02-5.48-0.14-7.65-0.34-3.99-0.3-4.53 1.05-2.98 3.33l0.17 0.36c-0.98 3.13-5.11 10.3-7.42 13.85-5.71 4.52-18.9 13.9-26.08 12.72-1.29-0.21-2.34-0.75-3.15-1.71-0.75-0.85-0.98-2.08-0.81-3.71 13.74-0.49 23.62-11.8 24.54-17.42 0.73-4.47-4.42-10.08-9.46-11.09-6.76-1.21-21.07 10.84-22.78 24.5-1.17 9.25 8.68 15.27 12.11 15.83 7.78 1.97 17.88-6.52 24.28-13.42q0.33-0.06 0.78-0.34c1.31-0.81 6.68-8.18 11.18-16.65v-0.09c3.47 1.75 8.33 2.43 11.89 2.46-4.48 6.2-12.64 14.19-17.8 18.3-1.48-0.01-2.78-0.38-3.66 0.15-1.66 0.98-2.46 3.51-2.48 5.59-0.01 1.63 0.5 2.9 1.19 2.91 6.87 0.15 21.9 1.82 27.34 5.12 1.82 1.19 3.38 1.66 3.39 0.66 0.01-0.72-0.77-1.99-2.57-4.36-2.67-3.37-8.55-6.23-14.71-8.27 11.73-9.4 20.06-17.75 20.52-20.37zm-45.41-5.07c0.98 0.44-7.34 14.11-17.23 17.44 3.4-8.34 12.93-19.15 17.23-17.44z"/>
			<path class="s0" d="m416.04 579.24c-0.86-4.11-5.46-6.55-12.27-6.04q-3.13 0.5-6.34 1.6c-6.66 2.28-13.32 6.19-19.03 9.38-0.5-4.42-0.93-9.72-1.19-12.6 17.8-10.01 31.03-32.04 28.88-51.2-0.13-0.92-0.26-1.83-0.55-2.68-2.76-8.05-13.5-12.31-20.48-8.3-14.87 8.92-19.62 39.05-18.44 55.38l-2.66 0.82c-4.28 1.46-14.01 3.65-17.57 0.75-1.24-1.2-2.74-3.17-1.99 1.16 0.46 2.71 5.17 8.66 13.53 8.95 3.07 0.1 6.71-0.29 9.78-0.96 0.82 5.08 2.65 10.96 4.2 12.53-4.58 3-10.23 7.14-12.81 8.21-0.33 0.11-0.22 1.23 0.25 2.6 0.76 2.22 2.47 5.08 4.58 4.26 8.09-2.96 30.59-17.74 43.17-22.05 2.64-0.9 4.86-1.37 6.41-1.14 0.55 1.06 0.79 2.03 1.04 2.23 0.82 0.77 1.69-1.25 1.49-2.9zm-33.85-50.3c3.62-9.27 7.18-13.36 10.31-14.43 1.07-0.37 2.09-0.34 3.09-0.1 1.11 0.29 1.87 1.17 2.34 2.54 2.61 7.62-4.04 29.79-21.26 42.29 0.34-10.26 1.98-21.05 5.52-30.3z"/>
			<path class="s0" d="m547.7 382.39c1.83-4.98 2.7-10.49 2.08-14.33-0.36-1.89-1.84-5.49-2.9-4.95-0.38 0.23-0.21 3.44-1.01 6.94-0.7 2.71-3.05 8.05-5.08 11.47-4.4 0.7-9.04 3.63-10.28 5.95-1.52 2.59 1.05 5.57 4.57 7.52-0.68 1.6-0.8 5.35 0.43 8.02 1.42 3.11 5.16 7.69 9.99 10.95q0.45 1.4 0.88 2.83c2.07 6.77 3.42 13.37 1.61 14.48-1.93 0.76-12.12-15.28-15.92-19.92l-0.24-0.13c-2.25-1.76-8.67-1.79-9.72 1-0.69 2.09 1.77 15.35 5.83 24.74-3.32-3.99-6.79-9.64-7.95-10.74-1.57-1.7-8.16 2.11-7.6 3.38 1.77 3.9 7.72 13.05 13.68 19.79 1.44 8.12 2.82 18.71 0.43 19.73-5.55-3.6-12.24-19.82-14.16-25.5-0.33-1.09-8.25-0.18-8.18 2.35 0.08 1.13 0.56 3.08 1.36 5.38-2.75-0.38-7.46 1.36-8.98 3.91-1.9 3.37-1.67 8.61-0.31 14.06-2.4 2.49-8.3 5.05-10.99 5.41-4.25-2.63-8.72-0.06-8.56 2.39-0.04 0.69 0.63 1.69 1.61 2.63 1.77 1.69 4.66 3.25 6.58 2.81 6.07 10.28 8.28 28.64 5.61 31.03-3.92 0.69-11.57-20.36-13.52-25.12-1.04-2.32-7.59-1.5-8.07 0.7-0.57 3.09 3.26 14.72 8.08 22.58-0.82 8-2.82 19.15-7.37 22.85-1.01 0.82-2.12 1.25-3.37 1.22-1.13-0.01-2.21-0.65-3.31-1.86 8.74-10.6 6.83-25.49 3.23-29.92-2.86-3.51-10.48-3.37-14.57-0.28-4.72 3.74-5.67 18.54 0.27 29.11-1.39 7.02-3.57 15.77-6.42 15.77-1.99-0.27-3.03-17.34-3.84-23.52l0.05-0.24c-0.11-2.69-6.91-6.49-8.95-3.66-0.31 5.17 0.24 11.09 0.44 16.59-0.38 14.74-3.16 21.53-4.75 21.44-2.53-0.15-2.95-24.38-3.4-27.29-0.62-3.86-7.06-5.23-8.15-3.19-1.36 6.13-1.01 25.74 3.22 33.33 2.94 4.99 9.44 5.8 12.11 4.17 2.15-1.31 3.56-5.35 4.14-17.25l0.03-0.13c2.16 3.56 7.66 7.73 13.69 5.43 3.9-2.01 5.22-9.57 5.51-16.5 6.25 6 16.56 2.8 19.16 0.69 5.37-3.66 6.61-13.03 6.4-21.43 4.94 4.53 14.83 1.18 16.67-0.36 4.6-4.27 0.98-24.96-7.14-36.36 2.39-1.32 4.58-2.95 6.39-4.83q0.44-0.47 0.84-0.95c2.76 7.55 7.09 14.51 10.32 16.47 4.63 3.02 11.02 0.67 12.12-1 1.93-2.36-0.08-8.53-3.85-18.45 3.49 2.74 11.62 6.48 16.87-0.46 2.19-2.94 0.7-9.82-1.46-16.11q0.73 0.57 1.42 1.02c2.37 1.53 9.07 0.43 10.6-1.71 0.65-0.84-0.12-1.14-0.52-1.35-9.36-10.8-13.66-25.22-15.13-30.4 3.52 5.57 7.44 9.98 10.81 12.52 3.08 2.31 11.78 4.41 15.77-1.64 2.23-3.6-0.2-10.45-3.29-16.5q0.38 0.13 0.77 0.25c5.78 1.84 12.9-2.86 14.41-6.19 5.11-11.28-8.08-24.73-18.99-28.64zm-87.13 148c-3.98-8.07-5.76-22.37-1.62-24.45 0.98-0.45 5.69 14.85 1.62 24.45zm54.16-46.4c-1.42 3.05-14-20.01-11.46-28.15 0.16-0.53 2.39-0.21 3.84 0.41 3.85 10.42 8.63 25.89 7.62 27.74zm44.82-73.73c-0.84 0.71-2.26 0.65-3.96 0.03-5.61-2.06-14.21-10.13-16.57-15.53 1.92-0.77 3.84-2.85 5.48-5.49 2.86 1.42 6.26 3.97 9.43 7.17 5.2 5.24 8.21 11.25 5.62 13.82z"/>
		</g>
		<path class="s0" d="m227.95 382.12c-0.94-4.67-2.01-9.37-3.05-13.93l-0.79-3.49c-0.37-1.62-1.18-2.38-2.81-2.61l-0.19-0.02c-4.05-0.58-8.23-1.18-12.41-1.01h-0.29c-0.8 0.05-1.64 0.09-2.36-0.4l-0.12-0.09h-0.15c-3.19-0.04-6.05 0.88-8.52 2.73h-0.34l-0.12 0.33c-1.45 1.76-0.99 3.65-0.4 5.44 2.64 7.91 3.76 14.59 3.54 21.02q0 0.25 0.07 0.46l0.19 0.68 0.57-0.39c2.22-1.51 4.79-2.27 7.84-2.33l6.71 0.72h0.2l0.15-0.1c1.75-0.57 3.51-0.31 5.21-0.06 0.84 0.13 1.71 0.26 2.57 0.29q1.79 0.05 3.42 0.35 0.85 0.15 1.23-0.18c0.27-0.24 0.38-0.65 0.36-1.31v-0.28c-0.06-2-0.12-3.89-0.51-5.82zm-0.9 6.6q-1.7-0.3-3.57-0.36c-0.8-0.03-1.64-0.15-2.46-0.28-1.81-0.27-3.69-0.55-5.66 0.1q-0.04 0.02-0.09 0.04l-6.56-0.7h-0.09-0.02c-2.93 0.06-5.44 0.73-7.64 2.03 0.14-6.37-1.02-13-3.61-20.79-0.55-1.64-0.91-3.11 0.22-4.48q0.01-0.01 0.02-0.02 0.14-0.05 0.26-0.15c2.26-1.69 4.88-2.56 7.77-2.53 0.96 0.59 2 0.54 2.84 0.5h0.28c4.09-0.17 8.23 0.42 12.23 0.99l0.18 0.02c1.23 0.18 1.71 0.62 1.98 1.84l0.79 3.49c1.04 4.55 2.11 9.25 3.05 13.91 0.37 1.85 0.43 3.69 0.49 5.65v0.28q0 0.41-0.03 0.5-0.08 0.02-0.38-0.03z"/>
		<path class="s0" d="m208.12 403.12c-0.15-0.63-0.18-1.25-0.18-1.86q0-0.35 0.01-0.68 0.02-0.71-0.01-1.38c-0.05-0.83-0.29-1.07-1.13-1.09-1.58-0.05-3.2-0.23-4.63-0.4-1.51-0.16-2.62-0.73-3.22-1.63-0.58-0.87-0.67-2.07-0.27-3.45 0.11-0.37 0.2-0.77 0.18-1.13-0.15-2.36-0.32-4.76-0.49-7.08l-0.16-2.3-0.03-0.14q-0.1-0.29-0.23-0.7c-0.37-1.25-0.88-2.97-2.1-2.79-3.29 0.43-6.91 0.57-11.05 0.45-1.44-0.09-2.03-0.15-3.5-0.32-5.84-0.49-10.99-1.43-15.75-2.86-4.74-1.42-8.97-3.29-12.93-5.72l-1.73-1.05 1.04 1.73c2.12 3.57 4.69 6.72 7.84 9.63 3.31 3.05 7.16 5.73 11.77 8.14-8.46 2.24-16.86 0.91-24.98-0.36q-1.35-0.22-2.74-0.43l-2.38-0.36 2.04 1.28c7.22 4.52 15.6 7.8 26.38 10.31 8.03 1.88 16.35 2.75 24.41 3.6l1.33 0.14c3.31 0.35 6.93 0.68 11.07 1.01q0.13 0 0.31 0.04 0.34 0.06 0.62 0.07h0.07l0.59-0.08zm-1.36-0.44c-4.13-0.33-7.74-0.66-11.04-1.01l-1.35-0.14c-8.01-0.84-16.3-1.71-24.27-3.57-9.6-2.24-17.27-5.08-23.89-8.88q0.1 0.01 0.21 0.03c8.22 1.3 16.72 2.63 25.38 0.35 0.39-0.11 0.68-0.44 0.72-0.84 0.05-0.4-0.15-0.79-0.51-0.98-4.52-2.4-8.3-5.03-11.55-8.02-2.56-2.37-4.73-4.9-6.58-7.69 3.52 1.98 7.27 3.55 11.39 4.79 4.82 1.45 10.04 2.4 15.94 2.89 1.48 0.18 2.07 0.23 3.57 0.33 4.2 0.12 7.87-0.02 11.21-0.46 0.17-0.02 0.49 0.32 1.02 2.09q0.12 0.4 0.22 0.69l0.16 2.23c0.16 2.32 0.33 4.71 0.48 7.07 0.02 0.21-0.06 0.52-0.14 0.79-0.49 1.68-0.35 3.16 0.4 4.29 0.77 1.15 2.13 1.86 3.94 2.07 1.44 0.16 3.08 0.35 4.71 0.4h0.15q0.01 0.1 0.01 0.15 0.03 0.64 0.01 1.3c-0.01 0.69-0.03 1.4 0.08 2.15q-0.15-0.01-0.27-0.03z"/>
		<path class="s0" d="m203.43 358.54c-0.61-3.21-1.24-6.94-0.91-10.66 0.52-5.86-0.11-11.35-1.93-16.77-1.55-4.6-3.5-9.12-5.81-13.42l-1.54-2.86 0.61 3.19c0.53 2.8 1.16 5.83 1.93 9.25 0.24 1.04 0.41 2.15 0.06 3.18q-0.06 0.19-0.1 0.42c-0.16 0.72-0.34 1.23-1.14 1.23-0.71 0-0.95-0.47-1.22-1.17l-0.09-0.23q-0.55-1.28-0.82-2.73c-0.26-1.43-0.56-2.95-0.98-4.45l-0.97 0.23 0.04 0.22c0.51 2.7 1.03 5.49 0.85 8.32-0.03 0.56-0.13 1.1-0.61 1.26-0.19 0.06-0.76 0.25-1.32-0.83-0.38-0.75-0.86-1.67-1.17-2.6-0.7-2.1-1.38-4.24-2.03-6.32l-1.42-4.49 0.57 6.07c0.32 3.37 0.65 6.85 0.87 10.28 0.19 2.91 0.93 5.5 2.2 7.68 1.29 2.23 3.19 4.11 5.63 5.59 1.65 1.01 2.78 2.3 3.44 3.95 0.17 0.43 0.35 0.86 0.55 1.36 0.69 1.69 1.4 3.44 1.93 5.21q0.23 0.77 0.63 0.97 0.17 0.08 0.36 0.08c0.28 0 0.62-0.12 1.03-0.26q0.18-0.07 0.36-0.12c0.77-0.22 1.22-0.43 1-1.58zm-2.29 0.94q-0.05-0.09-0.13-0.32c-0.54-1.81-1.27-3.58-1.99-5.37q-0.27-0.63-0.52-1.28c-0.75-1.86-2.01-3.31-3.85-4.43-2.3-1.39-4.08-3.16-5.29-5.24-1.19-2.05-1.88-4.49-2.06-7.24-0.15-2.36-0.35-4.74-0.57-7.08q0.31 0.96 0.63 1.91c0.33 1.01 0.83 1.97 1.23 2.75 0.86 1.65 2.05 1.47 2.52 1.32 1.19-0.39 1.27-1.72 1.3-2.15q0.03-0.52 0.04-1.05l0.02 0.04c0.22 0.57 0.68 1.76 2.13 1.76 1.67 0 1.98-1.41 2.11-2.01q0.04-0.18 0.08-0.32c0.42-1.27 0.23-2.54-0.03-3.72q-0.69-3.03-1.24-5.7 2.39 4.93 4.12 10.08c1.78 5.28 2.39 10.64 1.89 16.36-0.34 3.85 0.29 7.67 0.92 10.94 0.04 0.2 0.04 0.3 0.06 0.32-0.07 0.03-0.22 0.08-0.35 0.11-0.14 0.04-0.28 0.08-0.51 0.16-0.16 0.06-0.38 0.13-0.51 0.16z"/>
		<path class="s0" d="m347.79 316.53l-0.17-0.02c-0.7-0.08-1.23-0.47-1.7-0.82l-0.3 0.4 0.28-0.42q-0.2-0.15-0.38-0.27c-4.8-3.22-9.88-5.51-15.07-6.81-5.27-1.32-10.83-1.64-16.51-0.98q-0.57 0.06-1.09 0.06h-0.39l-0.31 0.07c-0.14 0.04-0.32 0.1-0.59 0.11-4.91 1.05-9.24 2.49-13.23 4.41-1.53 0.78-3.32 1.73-5 2.95l-1.05 0.81c-1.76 1.37-3.59 2.79-5.25 4.49l-0.78 0.79 4.42 0.23 0.16 0.19h0.25c8.82-0.39 17.97-0.59 27.21-0.59 10.19 0 20.52 0.23 31.58 0.69q0.58 0.04 1.15 0.15 0.59 0.12 1.19 0.15l1.29 0.05zm-0.46 0.95l3.48 3.44q-0.43-0.08-0.9-0.1c-11.07-0.46-21.42-0.69-31.62-0.69-9.18 0-18.28 0.2-27.05 0.57q-0.23-0.15-0.5-0.16l-2.19-0.12c1.4-1.32 2.89-2.48 4.35-3.61l1.03-0.8c1.61-1.17 3.35-2.1 4.84-2.85 3.92-1.88 8.17-3.3 12.91-4.32 0.32-0.01 0.59-0.09 0.81-0.16h0.38q0.57-0.02 1.19-0.07c5.56-0.66 10.99-0.34 16.15 0.95 5.08 1.27 10.04 3.51 14.76 6.67q0.15 0.11 0.33 0.24l0.02 0.02c0.48 0.36 1.13 0.84 2.01 0.99z"/>
		<path class="s0" d="m249.01 378.51c-1.24-5.42-1.32-10.75-1.29-15.75v-0.55l-0.55 0.05c-1.99 0.2-3.82 0.66-5.6 1.11q-0.62 0.15-1.26 0.32c-2.28 0.55-3.43 0.83-4.03 1.57-0.6 0.75-0.65 1.95-0.75 4.34-0.1 2.41 0.56 3.44 2.85 4.42q2.43 1.04 4.62 2.18c1.41 0.73 2.79 1.49 4.32 2.33l1.94 1.07zm-1.28-0.9c-1.47-0.8-2.85-1.57-4.27-2.3q-2.22-1.16-4.69-2.21c-1.91-0.82-2.32-1.46-2.24-3.45 0.09-2.11 0.14-3.27 0.53-3.76 0.39-0.48 1.49-0.75 3.49-1.24q0.64-0.16 1.27-0.31c1.57-0.4 3.18-0.81 4.9-1.02-0.02 4.56 0.08 9.39 1.08 14.34z"/>
		<path class="s0" d="m383.44 323.42c-4.06-8.39-9.36-15.66-15.75-21.62-6.36-5.94-13.98-10.75-22.65-14.29-1.01-0.42-1.72-0.29-2.6 0.45-4.17 3.54-8.16 6.43-12.18 8.84q-0.28 0.17-0.57 0.31h-0.02c-0.31 0.16-0.62 0.31-0.92 0.53l-0.91 0.66 1.8 0.38c2.82 0.59 5.74 1.2 8.45 2.3l0.38 0.17 0.22-0.37 0.6 0.2c5.71 1.91 11.12 5.07 16.55 9.64 4.18 3.51 7.36 7.08 9.73 10.92l0.18 0.28-0.15 0.4 0.37 0.22c0.96 0.55 2.07 0.55 3.14 0.54h0.29q0.6-0.01 1.21 0.05c3.06 0.35 6.18 0.61 9.21 0.85l4 0.33zm-3.54-0.54c-3.02-0.24-6.14-0.49-9.17-0.84q-0.69-0.07-1.33-0.06h-0.3c-0.85 0.01-1.68 0.01-2.36-0.27q-0.02-0.21-0.13-0.4l-0.19-0.29c-2.43-3.94-5.68-7.59-9.93-11.17-5.53-4.65-11.06-7.86-16.88-9.82l-0.6-0.2c-0.29-0.1-0.6-0.06-0.84 0.1-2.51-0.98-5.13-1.56-7.7-2.1q0.16-0.08 0.31-0.17c4.06-2.44 8.09-5.36 12.31-8.93 0.6-0.51 0.91-0.57 1.57-0.3 8.56 3.5 16.08 8.24 22.35 14.1 6.1 5.69 11.19 12.59 15.14 20.54z"/>
		<path class="s0" d="m364.01 321.8c-3.19-4.3-6.83-8.09-10.85-11.26-4.24-3.35-9.02-6.12-14.21-8.21l-0.3-0.2 0.02-0.38-1.87-0.55c-1.76-0.52-3.58-1.05-5.37-1.56-2.94-0.84-5.65-0.65-8.52 0.61-8.17 3.58-17.24 6.04-28.53 7.73q-1.14 0.16-2.32 0.28c-3.18 0.35-6.18 0.68-8.69 2.92l1.69-1.97-1.21 0.09q-2.09 0.17-4.12 0.3c-3.94 0.27-7.66 0.52-11.35 1.16-4.81 0.83-8.13 3.14-9.88 6.87-0.64 1.38-1.42 2.71-2.28 4.16q-0.36 0.63-0.74 1.28l-0.48 0.82 3.97-0.32c2.83-0.23 5.51-0.45 8.2-0.6q0.58-0.02 1.19-0.05c2.84-0.08 5.53-0.15 6.83-3.72l0.32 0.44-1.66 2.87 3.11-0.18c1.93-0.11 3.78-0.21 5.64-0.32q0.58-0.04 1.07-0.2l0.39-0.11-0.06-0.42 0.21-0.25c2.25-2.65 4.9-4.95 8.15-7.04 1.58-1.37 3.37-2.28 5.09-3.06 4.18-2.22 8.76-3.74 13.61-4.53 6.78-1.18 13.35-1.02 19.53 0.48 6.13 1.47 12.05 4.3 17.63 8.43 2.83 1.64 4.99 3.96 6.96 6.19l0.39 0.45 0.18 0.03q3.63 0.57 7.2 0.54 0.24 0 0.57 0.07l1.22 0.2zm-1.5-0.28q-3.19 0-6.42-0.5l-0.16-0.18c-2.03-2.29-4.25-4.68-7.16-6.36-5.65-4.18-11.68-7.07-17.94-8.58-5.94-1.43-12.23-1.66-18.72-0.68 3.97-1.16 7.67-2.5 11.2-4.05 2.65-1.16 5.14-1.34 7.85-0.57 1.79 0.51 3.6 1.04 5.35 1.56l1.18 0.34c0.09 0.28 0.29 0.51 0.57 0.63l0.32 0.12c5.09 2.06 9.79 4.78 13.96 8.08 3.67 2.89 7.04 6.32 10.01 10.19zm-79.27-0.88q-0.12 0.13-0.18 0.3-0.24 0.06-0.52 0.07c-1.86 0.11-3.71 0.21-5.64 0.32l-1.26 0.07 0.73-1.25c0.19-0.33 0.18-0.75-0.04-1.06l-0.32-0.46c-0.21-0.3-0.57-0.46-0.93-0.41-0.36 0.05-0.67 0.29-0.79 0.63-1.1 2.94-3.24 3-5.99 3.08q-0.59 0.01-1.18 0.04c-2.71 0.15-5.39 0.37-8.23 0.6l-2.07 0.17q0.14-0.24 0.29-0.49c0.84-1.42 1.64-2.77 2.3-4.19 1.6-3.42 4.68-5.55 9.14-6.31 3.64-0.63 7.34-0.88 11.26-1.15q1.44-0.1 2.92-0.21l-0.12 0.14c-0.33 0.39-0.31 0.98 0.06 1.34 0.36 0.36 0.95 0.37 1.33 0.04 2.3-2.01 5.15-2.32 8.2-2.66q1.16-0.12 2.33-0.28 4.24-0.64 8.1-1.42-2.92 1.05-5.62 2.48c-1.76 0.81-3.63 1.75-5.24 3.16-3.28 2.11-6 4.46-8.32 7.2z"/>
		<path class="s0" d="m342.12 279.38q-0.17-0.41-0.33-0.88c-2.16-7-4.03-14.22-5.85-21.23l-1.18-4.54-0.55 0.26c-1.64 0.8-3.05 1.95-4.46 3.09q-0.75 0.62-1.53 1.22c-2.86 2.18-5.65 2.38-8.28 0.59-1.18-0.8-1.86-0.74-3.01 0.27-3.21 2.83-6.27 4.61-9.35 5.42-3.55 0.94-7.07 0.61-10.77-1.03q-0.32-0.13-0.53-0.15h-0.27l-0.16 0.2c-0.05 0.08-0.12 0.19-0.24 0.54-0.93 2.79-2.96 4.71-6.41 6.04-6.06 2.36-12.2 1.88-18.78-1.45l-0.38-0.19c-2.33-1.19-4.75-2.41-7.4-3.38l-1.04-0.38 0.74 1.89c0.48 1.22 0.93 2.37 1.33 3.53q0.91 2.63 0.02 4.35c-0.61 1.17-1.9 2.05-3.82 2.6-1.42 0.41-2.83 0.34-4.21 0.27q-0.71-0.04-1.44-0.05c-1.47-0.01-2.78 0.05-4.01 0.88-1.05 0.71-1.22 1.41-0.59 2.5 1 1.77 2.27 4.13 3.15 6.7 1.15 3.33 2.32 6.71 3.45 9.98 1.48 4.26 3.01 8.66 4.49 13 0.17 0.52 0.28 0.76 0.42 0.89l0.16 0.17 0.24-0.02c0.13-0.01 0.35-0.07 0.83-0.39q2.36-1.58 5.04-2.18c3.13-0.72 6.37-1.07 9.51-1.4 1.16-0.13 2.37-0.25 3.54-0.4 10.55-1.3 22.97-3.16 35.15-7.03 10.11-3.22 17.9-7.19 24.59-12.54 1.84-1.48 2.76-2.22 3-3.11 0.25-0.9-0.19-1.95-1.07-4.04zm0.11 3.77c-0.16 0.59-1.05 1.3-2.73 2.65-6.52 5.22-14.21 9.14-24.21 12.32-12.09 3.85-24.46 5.69-34.96 6.99-1.17 0.14-2.37 0.27-3.53 0.39-3.16 0.34-6.43 0.69-9.63 1.42q-2.85 0.65-5.37 2.33-0.04 0.03-0.08 0.05-0.03-0.08-0.07-0.19c-1.48-4.34-3-8.75-4.48-13.01-1.14-3.27-2.31-6.65-3.45-9.98-0.91-2.64-2.21-5.05-3.24-6.86-0.36-0.64-0.33-0.77 0.28-1.18 0.94-0.63 2.01-0.71 3.22-0.71h0.23q0.7 0.01 1.42 0.05c1.44 0.07 2.93 0.14 4.51-0.31q3.31-0.95 4.44-3.1 1.08-2.09 0.04-5.13c-0.38-1.12-0.81-2.21-1.27-3.38 2.19 0.88 4.25 1.92 6.25 2.93l0.37 0.19c6.85 3.47 13.26 3.96 19.6 1.5 3.71-1.45 5.93-3.54 6.97-6.59 3.86 1.68 7.56 2.01 11.3 1.02 3.23-0.86 6.42-2.7 9.76-5.64 0.83-0.74 1.02-0.71 1.78-0.19 3.03 2.05 6.2 1.84 9.44-0.62q0.79-0.6 1.6-1.27c1.16-0.95 2.36-1.92 3.68-2.65l0.88 3.36c1.81 7 3.69 14.24 5.85 21.26q0.17 0.51 0.37 0.97c0.76 1.82 1.18 2.82 1.03 3.38z"/>
		<path class="s0" d="m443.25 267.8c-0.79-0.93-2.13-1.36-3.92-1.36l-0.66 0.02-0.13 0.27c-0.38 0.79-1.05 1.28-1.65 1.72-0.41 0.31-0.8 0.59-1.09 0.95-3.9 4.79-6.38 10.26-8.79 15.9-2.6 6.12-4.78 12.3-7.26 19.7q-0.05 0.14-0.08 0.38c-0.11 0.54-0.27 1.13-0.88 1.39l-0.28 0.12-0.02 0.3c-0.1 1.39-0.58 2.7-1.04 3.97-0.21 0.58-0.43 1.18-0.6 1.78-3.56 11.91-6.84 24.32-9.76 36.89q-0.14 0.57-0.33 1.16c-0.36 1.17-0.74 2.39-0.23 3.69 0.06 0.15 0.04 0.31-0.01 0.35-1.41 1.2-0.88 2.42-0.37 3.6 0.15 0.34 0.31 0.7 0.4 1.06 0.5 1.84-0.27 3.18-1.09 4.61l-0.21 0.37c-0.29 0.54-0.76 0.54-1.5 0.36q-0.45-0.1-0.7 0l-0.21 0.07-0.09 0.21q-0.11 0.29 0.02 0.81 0.03 0.1 0.04 0.21 0.03 0.19 0.11 0.36c1.45 2.72 0.46 5.01-0.58 7.44q-0.33 0.77-0.64 1.56l-0.09 0.23 0.14 0.21-0.07 0.24c-0.31 0.97-0.59 1.96-0.9 3-0.68 2.37-1.38 4.82-2.45 7.13l-0.24 0.52-0.04 0.16q-0.03 0.26-0.07 0.5l-0.08 0.34 0.35 0.17-1.57 1.81-0.21 0.14v0.26c-0.03 0.89-0.39 1.66-0.78 2.49q-0.29 0.6-0.51 1.18c-0.73 2.08-0.75 3.64-0.06 5.22 0.64 1.49 0.35 2.93-0.91 4.42q-0.09 0.1-0.19 0.24c-0.24 0.31-0.54 0.7-0.93 0.74q-0.37 0.05-0.81-0.33l-0.29-0.24-0.31 0.21c-0.07 0.05-0.17 0.14-0.24 0.19q-0.09 0.09-0.21 0.17c-1.19 0.79-2.39 2.74-3.22 5.2-0.82 2.46-1.03 4.75-0.57 6.12q0.06 0.17 0.17 0.29l0.55 0.62 0.37-1c0.18-0.53 0.32-0.64 0.69-0.56 0.33 0.09 0.51 0.35 0.58 0.88 0.18 1.37-0.37 1.62-0.55 1.7-0.82 0.38-1.42 1.01-2.01 1.61-0.46 0.47-0.93 0.96-1.49 1.32-1.3 0.84-1.68 2.17-1.02 3.55q0.14 0.28 0.23 0.54l0.46 1.36 0.48-1.35q0.21-0.59 0.61-0.72c0.35-0.11 0.63 0.05 0.89 0.23l0.14 0.1h0.17q0.42 0.02 0.85 0.24 0.25 0.13 0.52 0.23l0.79 0.26-2.09 2.48 2.74-1.74q0.39-0.24 0.8-0.36l0.61-0.18 0.66 0.12q0.99 0.18 1.96 0.96 0.19 0.17 0.37 0.36c0.41 0.43 0.87 0.92 1.55 0.41 0.76-0.57 0.88-1.71 0.48-2.31-0.57-0.86-0.69-1.79-0.82-2.77-0.1-0.74-0.19-1.44-0.48-2.11-0.13-0.32-0.29-0.77-0.11-1.12q0.2-0.38 0.9-0.52c0.3-0.07 0.62-0.07 0.97-0.07 0.8 0.01 1.62 0.01 2.14-0.9q0.5-0.87 0.81-1.55l0.32-0.69-0.76-0.02h-0.65l-0.02-9.31 1.44 0.02-0.53-1.02c-0.65-1.21-0.43-2.29 0.6-3.04 1.99-1.43 2.98-3.43 3.14-6.3 0.05-0.99 0.36-1.91 0.66-2.82q0.25-0.72 0.43-1.43c0.33-1.3 1.42-1.53 2.71-1.69 1.12-0.14 2.26-0.12 3.35-0.1h0.01q1.09 0.03 2.19-0.01c3.97-0.17 8.53-0.1 12.38 2.91q0.39 0.3 0.68 0.32h0.17l0.15-0.09c0.2-0.15 0.32-0.41 0.5-1.14 0.98-3.82 2.38-7.56 4.31-11.46 0.92-1.85 1.9-3.61 3-5.56 1.31-2.32 1.05-4.02-0.88-5.86-1.17-1.12-2.44-1.91-3.88-2.4-5.93-2.02-11.85-1.68-16.85-1.08q-0.43-0.04-0.65-0.51-0.48-2.48 1.91-3.47c0.73-0.3 1.39-0.76 1.98-1.18l0.72-0.5-0.22-0.39c-0.52-0.94-0.04-1.4 0.7-1.96 0.27-0.21 0.52-0.4 0.69-0.63 0.57-0.77 0.88-1.62 1.14-2.42 5.49-17.59 11.44-36.82 18.2-58.81l0.03-0.1c1.89-6.15 4.02-13.11 5.91-19.94q0.48-1.74 0.75-3.37 0.46-2.75-0.74-4.16zm-0.25 3.99q-0.26 1.58-0.73 3.27c-1.88 6.82-4.01 13.78-5.9 19.91l-0.03 0.11c-6.75 21.98-12.71 41.22-18.2 58.8-0.22 0.72-0.5 1.47-0.98 2.13-0.09 0.11-0.29 0.27-0.5 0.42-0.54 0.41-1.73 1.31-1.16 2.83h-0.01c-0.54 0.39-1.15 0.82-1.78 1.07-2.03 0.84-2.92 2.47-2.51 4.59q0.03 0.1 0.07 0.21c0.29 0.65 0.81 1.04 1.46 1.11q0.11 0 0.21-0.01c4.9-0.59 10.68-0.92 16.41 1.04 1.3 0.44 2.45 1.15 3.52 2.18 1.59 1.51 1.78 2.73 0.7 4.64-1.11 1.96-2.1 3.73-3.03 5.61-1.95 3.96-3.39 7.77-4.39 11.72q-0.03 0.1-0.05 0.19c-4.09-3.11-8.8-3.19-12.89-3.01q-1.07 0.03-2.13 0.01h-0.01c-1.13-0.02-2.3-0.04-3.49 0.11-1.06 0.13-3.04 0.37-3.56 2.44q-0.17 0.67-0.41 1.36c-0.32 0.96-0.65 1.95-0.71 3.08-0.14 2.54-1 4.3-2.72 5.54-1.32 0.96-1.72 2.38-1.11 3.87q-0.3 0.06-0.51 0.26c-0.18 0.19-0.29 0.44-0.29 0.7v9.34c0 0.49 0.37 0.9 0.84 0.97q-0.19 0.36-0.43 0.78c-0.2 0.35-0.35 0.4-1.27 0.4-0.36 0-0.77 0-1.17 0.08q-1.17 0.24-1.58 1.04c-0.43 0.82-0.05 1.69 0.07 1.98 0.24 0.55 0.32 1.18 0.41 1.85 0.13 1.01 0.27 2.14 0.98 3.2 0.11 0.16 0.08 0.62-0.21 0.91q-0.08-0.07-0.26-0.26-0.22-0.23-0.47-0.45-0.72-0.57-1.45-0.88 0.71-0.67 0.9-1.56c0.32-1.51-0.65-2.83-1.07-3.4-0.57-0.77-1.22-0.96-1.66-0.97-1.02-0.04-1.61 0.68-1.98 1.12-0.05 0.05-0.14 0.16-0.2 0.22-0.44 0.18-0.96 0.32-1.5 0.46q-0.48 0.13-1.02 0.28l-0.14 0.05q0.47-0.44 0.9-0.88c0.54-0.56 1.06-1.1 1.71-1.4 0.64-0.29 1.35-1 1.12-2.74-0.16-1.18-0.81-1.58-1.33-1.71-0.38-0.1-0.85-0.11-1.25 0.22-0.06-1.18 0.21-2.79 0.75-4.41 0.73-2.19 1.84-4.03 2.83-4.69q0.09-0.06 0.19-0.14 0.59 0.37 1.21 0.31c0.82-0.09 1.3-0.71 1.63-1.14q0.07-0.11 0.15-0.2 2.27-2.68 1.07-5.46c-0.58-1.33-0.55-2.67 0.09-4.49 0.12-0.36 0.29-0.71 0.47-1.1 0.38-0.81 0.78-1.66 0.85-2.66q0.01-0.01 0.03-0.04l1.52-1.76c0.31-0.35 0.33-0.87 0.04-1.24q-0.01-0.01-0.03-0.04 0.02-0.09 0.02-0.19l0.21-0.45c1.1-2.38 1.81-4.86 2.53-7.36q0.41-1.44 0.86-2.88l0.08-0.25q0.09-0.29 0-0.58 0.26-0.67 0.55-1.33c1.04-2.42 2.22-5.16 0.56-8.26q-0.02-0.04-0.03-0.13 0-0.03 0-0.06c0.64 0.13 1.72 0.21 2.35-0.91l0.2-0.36c0.84-1.47 1.79-3.14 1.19-5.38-0.12-0.42-0.3-0.83-0.45-1.19-0.56-1.3-0.68-1.78 0.1-2.43 0.45-0.39 0.47-1.02 0.29-1.48-0.38-0.98-0.08-1.93 0.27-3.07q0.18-0.57 0.33-1.19c2.92-12.55 6.2-24.94 9.74-36.84 0.18-0.57 0.39-1.16 0.59-1.72 0.46-1.25 0.92-2.54 1.07-3.95 0.9-0.54 1.1-1.53 1.19-1.98q0.02-0.15 0.05-0.25c2.47-7.38 4.64-13.54 7.23-19.62 2.38-5.58 4.83-10.98 8.64-15.66 0.22-0.27 0.55-0.52 0.92-0.79 0.59-0.43 1.31-0.96 1.8-1.81h0.05q2.27-0.03 3.15 1.01 0.9 1.06 0.5 3.34zm-50.49 152.81l-0.66 0.75-0.33-0.55c-0.23-0.4-0.31-0.82-0.23-1.35l0.13-0.93-0.85 0.41c-0.76 0.37-1.82 0.7-3.17-0.05l-1-0.51 1.09-0.33q0.51-0.15 0.99-0.27c0.61-0.16 1.18-0.31 1.71-0.54l0.11-0.06c0.08-0.07 0.18-0.18 0.38-0.41 0.38-0.44 0.67-0.82 1.18-0.76q0.49 0.02 0.9 0.56c0.33 0.46 1.12 1.53 0.89 2.6q-0.18 0.85-1.14 1.44zm-7.03-1.91q0.12 0.34 0.44 0.51l0.21 0.12q-0.29 0.1-0.61 0.39-0.19-0.55-0.04-1.02zm4.74 1.71l-0.4-0.15q0.24-0.04 0.45-0.12 0.02 0.16 0.05 0.31-0.04-0.02-0.1-0.04z"/>
		<path class="s0" d="m419.23 392.2q-0.22-0.24-0.87-0.38-3.35-0.74-6.86-0.68l-1.16 0.06q-1.32 0.07-2.66 0.13c-1.36 0.05-1.85 0.6-1.8 2.03v0.25c0.07 1.66 0.09 2.49 0.56 2.98 0.47 0.49 1.37 0.62 3.15 0.89q0.97 0.14 1.92 0.3h0.11q0.87 0.17 1.76 0.29l0.19 0.03q0.3 0.06 0.61 0.07c0.29 0 0.57-0.07 0.85-0.31 1.08-0.96 1.99-2.1 2.87-3.2q0.51-0.65 1.06-1.31 0.37-0.44 0.41-0.74l0.03-0.24zm-5.53 4.91l-0.18-0.03q-0.88-0.13-1.74-0.27l-0.11-0.02q-0.95-0.16-1.93-0.3c-1.31-0.2-2.35-0.35-2.58-0.59-0.2-0.21-0.23-1.15-0.27-2.33v-0.24c-0.04-0.91 0.07-0.97 0.83-1q1.35-0.06 2.67-0.13l1.14-0.06q3.36-0.06 6.6 0.65-0.53 0.63-1.01 1.25c-0.86 1.07-1.73 2.17-2.75 3.07-0.09 0.07-0.17 0.08-0.67 0z"/>
		<path class="s0" d="m404.92 339.34c-0.34-2.81-1.52-5.37-3.41-7.38-1.9-2-4.46-3.42-7.41-4.1-7.16-1.64-15-2.6-24.67-3.01-10-0.41-19.15-0.73-28-0.96l-3.33-0.09c-15.31-0.4-31.15-0.81-46.73 0.2-3.75 0.25-7.56 0.46-11.26 0.66-9.1 0.49-18.5 1.01-27.71 2.12-5.38 0.65-12.39 1.82-18.84 5.18-2.89 1.51-3.42 2.61-2.83 5.88 1.13 6.31 1.58 12.11 1.38 17.73q-0.03 0.88-0.05 1.74v0.16c-0.06 2.02-0.12 4.11-0.37 6.26l-0.1 0.78 0.75-0.24q0.24-0.08 0.4-0.16c4.99-2.5 10.66-4.18 17.33-5.12 5.33-0.76 10.77-1.31 16.03-1.85h0.02c2.97-0.3 6.03-0.62 9.04-0.96 12.02-1.38 23.99-2.09 35.58-2.11 5.52-0.02 11.13 0.21 16.56 0.42h0.3c2.15 0.09 4.36 0.18 6.53 0.25 2.86 0.09 5.76 0.17 8.6 0.24 13.19 0.35 26.83 0.71 40.13 2.87 5.27 0.86 11.24 1.83 16.1 5.46q0.13 0.11 0.27 0.27l0.71 0.75 0.15-1.02q0.16-1.04 0.3-2.09c0.27-1.9 0.55-3.86 0.94-5.75 0.34-1.67 0.79-3.34 1.23-4.99q0.42-1.55 0.82-3.14c0.17-0.73 0.4-1.45 0.62-2.17 0.6-1.96 1.16-3.8 0.92-5.83zm-21.9 17.52c-13.37-2.17-27.04-2.53-40.29-2.88-2.81-0.07-5.71-0.15-8.57-0.24-2.17-0.07-4.38-0.16-6.57-0.24h-0.25c-5.44-0.22-11.06-0.44-16.6-0.43-11.63 0.02-23.64 0.73-35.69 2.11-3.01 0.35-6.07 0.66-9.03 0.96h-0.02c-5.27 0.54-10.72 1.1-16.07 1.86-6.56 0.93-12.18 2.56-17.16 4.98 0.18-1.89 0.23-3.71 0.28-5.48v-0.16q0.03-0.86 0.06-1.73c0.21-5.7-0.25-11.57-1.4-17.95-0.51-2.84-0.18-3.51 2.31-4.81 6.31-3.29 13.2-4.44 18.5-5.08 9.17-1.11 18.56-1.62 27.66-2.11 3.69-0.21 7.51-0.41 11.26-0.66 7.19-0.47 14.44-0.63 21.67-0.63 8.39 0 16.76 0.22 24.98 0.43l3.32 0.09c8.84 0.23 17.99 0.54 27.97 0.96 9.61 0.41 17.39 1.35 24.5 2.98 2.75 0.64 5.14 1.96 6.9 3.82 1.75 1.85 2.84 4.21 3.15 6.81 0.22 1.82-0.32 3.56-0.89 5.43q-0.35 1.08-0.63 2.21-0.4 1.56-0.82 3.16c-0.44 1.63-0.89 3.31-1.24 5.01-0.39 1.92-0.68 3.9-0.95 5.83q-0.08 0.58-0.17 1.17c-4.98-3.58-10.94-4.55-16.21-5.41z"/>
		<path class="s0" d="m425.25 394.95c-1.3-1.32-2.73-2.19-4.01-2.45-0.81-0.16-1.42 0.74-1.97 1.54-0.19 0.27-0.38 0.56-0.58 0.79-0.42 0.49-0.67 1.09-0.94 1.72q-0.16 0.41-0.36 0.81l-0.37 0.7q-0.31 0.43-0.63 0.85c-0.55 0.72-1.07 1.4-1.41 2.21l-0.13 0.31 0.34 0.34-0.02 3.39-0.16 0.21 0.08 0.25q0.06 0.17 0.12 0.34c0.19 0.51 0.16 1.06-0.09 1.52-0.21 0.41-0.57 0.72-0.94 0.82-2.6 0.68-3.99 2.7-5.23 4.48l-0.31 0.46c-1.18 1.67-2.52 3.58-1.82 5.94l0.04 0.13c0.18 0.62 0.46 1.56 1.29 1.39 0.72-0.13 0.64-0.8 0.56-1.39q-0.03-0.2-0.06-0.37c0.55-0.1 0.71 0.04 0.8 0.33 0.03 1.09-0.14 2.13-1.57 2.3-0.5 0.06-0.66 0.4-0.82 0.75q-0.06 0.14-0.15 0.3c-0.09 0.14-0.13 0.31-0.18 0.63-0.08 0.43-0.15 0.74-0.38 0.83q-0.29 0.14-0.91-0.28l-0.32-0.21-0.29 0.25c-0.11 0.1-0.28 0.3-0.36 0.53q-0.09 0.24-0.19 0.49c-0.4 0.99-0.82 2.02 0.41 2.9-0.76 0.81-1.07 1.86-0.97 3.31v0.18l0.13 0.13q1.63 1.73 2.6 4.19l0.67 1.14 0.3-1.16q0.16-0.66 0.55-0.83 0.29-0.15 0.77-0.01l0.89 0.26-0.28-0.89c-0.53-1.69 0.16-3.07 0.98-4.31q0.09-0.15 0.19-0.24l0.35-0.33 0.45-0.03q0.28-0.03 0.66 0.04c0.73 0.13 0.98 0.41 1.07 1.21 0.05 0.46 0.57 0.86 1.24 1.35l0.42 0.29 0.82-0.63-0.3-0.39c-0.36-0.48-0.19-0.87 0.3-1.47 0.25-0.32 0.51-0.66 0.49-1.03q0-0.1 0.03-0.22l0.1-0.47-0.47-0.12q-0.63-0.16-0.76-0.46c-0.12-0.27 0.05-0.59 0.3-1.03q0.12-0.21 0.2-0.39l-0.45-0.21 0.51 0.1c0.2-0.42 0.4-0.86-0.01-1.32q-0.21-0.23-0.32-0.46c-0.1-0.2-0.12-0.43-0.01-0.46l0.48 0.21 0.26-0.69c0.1-0.29 0.19-0.54 0.34-0.56 0.13 0 0.34 0.16 0.59 0.53l0.14 0.2 0.23 0.02c0.34 0.03 0.83-0.18 1.13-0.63 2.11-3.18 2.9-6 2.51-8.91l-0.36-2.64-1.23 5.3c-0.12-1.89-0.01-3.56 0.35-5.1q0.05-0.25 0.11-0.51c0.24-1.13 0.48-2.3 1.65-3.02 1.95-1.2 3-3.09 3.41-6.14q0.17-1.17 0.33-2.32c0.12-0.85 0.25-1.74 0.36-2.61l0.04-0.24c0.07-0.49 0.16-1.04-0.23-1.44zm-0.76 1.29l-0.04 0.26q-0.17 1.32-0.36 2.6-0.17 1.15-0.33 2.32c-0.37 2.73-1.27 4.4-2.94 5.43-1.53 0.95-1.85 2.45-2.11 3.66q-0.05 0.25-0.11 0.49c-0.38 1.64-0.5 3.4-0.37 5.4 0.03 0.48 0.42 0.87 0.89 0.91q0.29 0.02 0.56-0.12c-0.35 1.54-1.07 3.13-2.2 4.83q-0.04 0.05-0.07 0.09c-0.28-0.33-0.73-0.71-1.32-0.64-0.65 0.09-0.93 0.62-1.09 1.02q-0.3 0.03-0.56 0.23c-0.52 0.43-0.44 1.14-0.2 1.66q0.17 0.34 0.45 0.67-0.03 0.07-0.12 0.26l-0.06 0.13q-0.06 0.13-0.17 0.31c-0.26 0.47-0.66 1.17-0.33 1.92 0.22 0.5 0.66 0.76 1 0.9-0.05 0.09-0.18 0.27-0.27 0.38-0.22 0.27-0.61 0.76-0.69 1.37h-0.01c-0.13-1.17-0.65-1.8-1.67-2.05 0.8-1 0.83-1.98 0.85-2.67 0.01-0.19 0.02-0.41 0.05-0.49 0.3-0.95 0.05-1.57-0.21-1.94-0.2-0.28-0.69-0.76-1.62-0.76-0.31 0-0.77 0.06-1.19 0.38-0.35 0.26-0.77 0.77-0.77 1.72v4.28q0 0.19 0.06 0.35-0.01 0.04-0.05 0.08c-0.8 1.21-1.54 2.66-1.27 4.42q-0.36 0.01-0.68 0.17-0.33 0.16-0.57 0.44-0.92-1.96-2.26-3.42c-0.05-1.07 0.17-1.81 0.71-2.39 0.19-0.2 0.29-0.48 0.26-0.76q-0.05-0.43-0.4-0.7c-0.53-0.39-0.54-0.6-0.07-1.76q0.07-0.16 0.13-0.33c0.37 0.18 0.89 0.33 1.4 0.12 0.75-0.32 0.89-1.11 0.97-1.59 0.02-0.1 0.04-0.24 0.05-0.27q0.12-0.21 0.22-0.43c0.01-0.03 0.05-0.11 0.08-0.17q2.46-0.32 2.39-3.31 0-0.13-0.04-0.28c-0.16-0.48-0.61-1.25-1.95-1-0.36 0.07-0.64 0.34-0.75 0.67-0.39-1.78 0.65-3.26 1.8-4.9l0.27-0.38c1.13-1.64 2.42-3.5 4.65-4.08 0.65-0.17 1.24-0.67 1.58-1.32 0.38-0.72 0.43-1.55 0.14-2.34q-0.03-0.06-0.04-0.11 0.05-0.15 0.05-0.31l0.03-3.42q0.01-0.29-0.16-0.54c0.3-0.59 0.71-1.14 1.16-1.72q0.33-0.42 0.66-0.89l0.44-0.82q0.21-0.42 0.38-0.86c0.24-0.56 0.46-1.09 0.78-1.45q0.33-0.41 0.65-0.89c0.24-0.35 0.74-1.08 0.94-1.12 1.09 0.22 2.33 0.99 3.49 2.17 0.04 0.08-0.02 0.44-0.04 0.59zm-14.01 32.51v-4.23q0.01-0.65 0.37-0.93c0.2-0.15 0.43-0.18 0.59-0.18 0.46 0 0.7 0.19 0.81 0.35q0.28 0.38 0.06 1.04-0.09 0.33-0.09 0.77c-0.02 0.7-0.05 1.57-0.97 2.44z"/>
		<path class="s0" d="m471.2 399.72q-0.68 0-1.33 0.01c-7.26 0.1-15.03-0.11-22.75-2.33q-0.28-0.06-0.68-0.1c-0.87-0.08-1.26-0.21-1.27-0.81-0.01-0.78 1.02-1.14 1.89-1.31 3.77-0.73 7.3-2.16 10.31-3.44l0.98-0.89c2.81-2.67 5.72-5.43 8.59-8.14 0.18-0.17 0.4-0.19 0.68-0.16l0.32 0.03 0.16-0.27q0.16-0.24 0.31-0.44l1.3-1.66-2.59 1.23c-0.25 0.14-0.55 0.3-0.94 0.41-4.86 2.1-10.03 3.34-15.37 3.68-5.02 0.31-10.37-0.16-15.9-1.4l-0.12-0.03c-1.74-0.39-2.61-0.59-3.2-0.27-0.58 0.31-0.87 1.13-1.45 2.76l-0.1 0.28c-0.8 2.27-1.19 4.64-1.56 6.94l-0.24 1.44c-0.2 1.2-0.51 2.56-1.55 3.59-1.23 1.22-1.63 2.6-1.16 4.01 0.15 0.43 0.03 0.69-0.19 0.98l-0.64 0.81 2.48-0.04c-0.44 0.38-0.96 0.39-1.47 0.4-0.49 0.01-0.92 0.02-1.22 0.36l-0.63 0.71 0.94 0.11c0.45 0.06 0.91 0.06 1.35 0.06 0.84 0 1.79-0.01 2.74 0.35l-1.83 0.78 1.98 0.18c3.86 0.35 7.39 0.53 10.72 0.53 3.33 0 6.75-0.2 9.91-0.58 8.02-0.98 15.14-3.22 21.77-6.84l1.71-0.93c0 0-1.95 0-1.95-0.01zm-41.32 6.9c0-0.39-0.23-0.75-0.6-0.91q-0.72-0.29-1.41-0.39c0.28-0.26 0.37-0.68 0.24-1.04-0.15-0.38-0.51-0.64-0.92-0.64h-0.65c0.08-0.31 0.09-0.67-0.06-1.11-0.35-1.05-0.05-2.02 0.91-2.98 1.26-1.24 1.61-2.78 1.84-4.13l0.24-1.46c0.36-2.25 0.74-4.57 1.51-6.75l0.1-0.29c0.4-1.12 0.74-2.08 0.99-2.21 0.25-0.14 1.3 0.1 2.51 0.37l0.11 0.02c5.62 1.27 11.07 1.75 16.19 1.42 4.73-0.3 9.33-1.29 13.67-2.94-2.31 2.19-4.63 4.4-6.89 6.55l-0.77 0.72c-2.94 1.26-6.38 2.64-10.02 3.35-2.37 0.46-2.71 1.64-2.7 2.31 0.03 1.59 1.54 1.73 2.18 1.79q0.29 0.02 0.5 0.07c7.57 2.17 15.16 2.44 22.29 2.37-6 3-12.43 4.89-19.59 5.76-5.9 0.72-12.17 0.76-19.67 0.12z"/>
		<path class="s0" d="m399.28 376.17q-0.56 0.33-1.19 0.67l-0.47 0.26-0.03 0.6c-0.07 1.55-0.95 2.84-1.76 3.92l-1.59 2.14-0.84-0.32 0.17 0.88c0 0 0.01 0.08 0.01 0.12l-0.07 0.71 0.68-0.17c0.24-0.06 0.41-0.02 0.59 0.16 0.38 0.34 0.34 0.74 0.24 1.3q-0.03 0.15-0.05 0.29-0.01 0.14-0.05 0.27-0.08 0.28-0.06 0.49l0.03 0.24 0.34 0.19q0.16 0.06 0.3 0.06c0.48 0 0.69-0.51 0.82-0.84 0.15-0.38 0.32-0.78 0.64-1.06l0.09-0.09 0.09-0.23c0.41-1.22 0.77-2.47 1.13-3.7 0.5-1.74 1.02-3.54 1.7-5.27l0.51-1.33zm-0.69 1.55v-0.01q0 0 0 0.01zm-1.26 4.08c-0.35 1.2-0.71 2.44-1.11 3.63q-0.08 0.08-0.15 0.16c-0.04-0.39-0.2-0.81-0.61-1.19q-0.14-0.13-0.3-0.22l1.47-1.96q0.53-0.68 1.01-1.49-0.16 0.54-0.31 1.07z"/>
		<path class="s0" d="m365.24 358.41c-0.24-0.31-0.69-0.45-1.48-0.45-2.08-0.02-4.19-0.14-6.22-0.26-2.63-0.15-5.35-0.31-8.03-0.24-3.97-0.4-8.02-0.45-11.97-0.5-1.53 0-3.11-0.03-4.67-0.07-15.88-0.41-30.28-0.22-44.02 0.59-3.04-0.04-6.14 0.19-9.16 0.41-2 0.14-4.07 0.29-6.12 0.37-0.48 0-0.78 0.12-0.96 0.33q-0.25 0.31-0.13 1 0.25 1.51 0.45 3l0.03 0.29 0.29 0.1 6.05 14.9 0.05 0.1c0.36 0.51 0.74 1.03 1.08 1.49 0.93 1.26 1.89 2.56 2.62 4.02l6.13 5.87c3.17 2.35 6.39 4.47 9.58 6.3 0.8 0.46 1.67 0.73 2.6 1.01 1 0.31 2.02 0.63 2.96 1.2l0.15 0.06c4.6 1.1 9.54 2.11 14.64 2.11q0.71 0 1.42-0.03c0.73-0.02 1.48-0.12 2.2-0.21 1.28-0.17 2.6-0.34 3.96-0.16l0.1 0.02 0.1-0.03c5.76-1.58 10.29-3.29 14.25-5.39 0.39-0.2 0.82-0.1 1.2-0.01l0.57 0.12 0.17-0.34c0.69-1.34 1.81-2.04 2.99-2.71 0.09-0.04 0.22-0.15 0.34-0.25 0.47-0.4 0.96-0.73 1.71-0.49l0.18 0.06 0.17-0.08q0.22-0.1 0.33-0.24l0.13-0.15-0.02-0.21-0.04-0.2c-0.11-0.31-0.14-0.71 0.56-1.18l0.09-0.07c0.66-0.48 1.2-1.11 1.76-1.77 1.02-1.2 2.07-2.43 3.89-2.83l0.17-0.06 0.44-0.43-0.32-0.36c-0.3-0.33-0.11-0.8 0.1-1.14q0.46-0.73 0.96-1.42l0.02-0.02q0.43-0.62 0.84-1.24c0.58-0.92 1.16-1.88 1.71-2.82l0.67-1.12 0.05-0.1c0.51-1.52 1.13-3.03 1.73-4.5 0.82-2.01 1.67-4.1 2.26-6.22q0.21-0.75 0.42-1.47l0.62-2.18 0.25-0.11 0.05-0.26q0.05-0.31 0.14-0.61c0.19-0.68 0.18-1.13-0.04-1.42zm-9.54 21.49q-0.51 0.7-1 1.48c-0.44 0.71-0.45 1.28-0.33 1.69-1.8 0.59-2.93 1.91-3.85 3-0.52 0.62-1.02 1.21-1.65 1.66-0.87 0.59-1.07 1.25-1.06 1.75-0.99-0.07-1.68 0.5-2.04 0.81q-0.11 0.08-0.18 0.14c-1.18 0.66-2.39 1.42-3.21 2.78-0.46-0.1-1.08-0.19-1.71 0.15-3.87 2.05-8.3 3.73-13.95 5.28-1.45-0.18-2.81-0.01-4.12 0.16-0.7 0.09-1.42 0.19-2.11 0.21-5.46 0.22-10.77-0.85-15.72-2.04-1.02-0.61-2.08-0.93-3.12-1.25-0.87-0.27-1.69-0.53-2.4-0.93-3.15-1.8-6.34-3.9-9.42-6.2l-5.93-5.63c-0.76-1.5-1.73-2.81-2.66-4.08-0.33-0.44-0.69-0.94-1.03-1.42l-6.03-14.86q-0.09-0.23-0.29-0.39-0.19-1.39-0.42-2.79-0.01-0.09-0.02-0.15 0.06 0 0.16 0c2.06-0.08 4.14-0.23 6.18-0.38 2.97-0.21 6.05-0.43 9.12-0.41 13.71-0.8 28.08-1 43.94-0.58q2.34 0.05 4.72 0.08c3.89 0.04 7.92 0.09 11.84 0.49h0.13c2.65-0.07 5.33 0.09 7.94 0.24 2.05 0.12 4.16 0.24 6.27 0.26 0.38 0 0.57 0.04 0.66 0.06 0 0.09 0 0.25-0.09 0.54q-0.07 0.24-0.12 0.48-0.21 0.19-0.31 0.48l-0.63 2.19q-0.21 0.72-0.42 1.48c-0.58 2.07-1.42 4.12-2.23 6.13-0.6 1.45-1.21 2.95-1.73 4.49l-0.65 1.09c-0.55 0.92-1.12 1.87-1.69 2.78q-0.39 0.61-0.82 1.2l0.41 0.3-0.42-0.28z"/>
		<path class="s0" d="m388.83 360.91c-0.24-0.29-0.67-0.45-1.36-0.5-3.6-0.31-7.23-0.91-10.76-1.49l-0.97-0.16c-0.49-0.09-0.79-0.05-0.98 0.09-0.23 0.17-0.3 0.46-0.37 1.08-0.28 2.35-0.68 5.12-1.58 7.91l-0.08 0.09-0.03 0.11c-2.05 7.36-5.32 13.96-9.72 19.61-4.45 5.72-10.18 10.65-17.04 14.63-2.63 1.53-5.04 2.86-7.8 3.55l-0.1 0.04c-3.84 1.97-8.12 2.72-11.83 3.26q-4 0.59-7.66 0.59c-2.67 0-5.18-0.22-7.75-0.7q-0.11 0-0.36-0.07c-8.53-1.08-16.45-4.12-23.55-9.03l-0.11-0.09h-0.15l-0.3-0.18c-1.81-1.09-3.39-2.49-4.93-3.85l-0.98-0.85c-0.42-0.36-0.76-0.78-0.44-1.44l0.23-0.52 6.23 4.9 0.14 0.08c0 0 0.09 0.04 0.18 0.08 3.82 2.46 7.75 4.5 11.68 6.07 4.12 1.65 8.38 2.84 12.66 3.53 4.47 0.71 9.02 0.79 13.53 0.24 4.3-0.51 8.69-1.62 13.06-3.28l0.12-0.04c4.35-1.89 8.38-4.13 11.98-6.65 3.8-2.67 7.26-5.75 10.26-9.15 5.36-6.06 9.13-13.28 11.21-21.47 0.06-0.25 0.17-0.47 0.27-0.69l0.5-1.26 0.68 0.61 0.15-0.9c0.29-1.7 0.58-3.46 0.83-5.19l0.04-0.21c0.07-0.36 0.09-0.56 0.01-0.74l-0.08-0.15-0.14-0.08q-0.22-0.12-0.61-0.12c-1.33-0.01-2.69-0.12-4.03-0.21l-1.22-0.09-0.07 0.45c-0.7 4.4-1.62 9.5-3.83 14.26-3.81 8.2-8.93 14.77-15.21 19.54-6.37 4.83-14.09 7.9-22.94 9.15-12.86 1.8-24.89-1.43-35.61-9.54q-0.69-0.55-1.31-1.13l-5.67-5.37-0.11-0.13h-0.2l-0.53-0.75c-0.4-0.58-0.85-1.17-1.23-1.67-1.02-1.33-2.07-2.71-2.83-4.36-3.03-4.81-4.92-9.48-5.77-14.28l-0.05-0.19 0.43-0.55-0.03-0.21q-0.11-0.77-0.19-1.58c-0.16-1.67-0.42-2.45-0.96-2.88-0.53-0.42-1.33-0.49-2.95-0.28q-0.63 0.09-1.3 0.23c-0.75 0.15-1.52 0.3-2.27 0.3q-0.77 0-1.03 0.33c-0.22 0.27-0.2 0.66-0.08 1.24 0.36 1.84 0.75 3.7 1.12 5.53l0.22 1.13h0.4l0.27 0.83c1.4 4.18 3.1 9 5.6 13.35q0.11 0.19 0.13 0.47l0.03 0.26 0.24 0.13q0.19 0.11 0.29 0.27c1.22 2.05 2.74 3.94 4.23 5.81q0.93 1.15 1.85 2.35l0.37 0.44-0.55 0.25c-0.47 0.22-0.9 0.13-1.21-0.22l-0.53-0.61c-2.07-2.38-4.21-4.84-5.65-7.9-2.74-4.01-4.73-8.55-6.07-13.86l-0.06-0.22 0.35-0.43-0.08-0.26c-0.76-2.41-1.16-4.94-1.55-7.41-0.08-0.54-0.19-0.8-0.38-0.96q-0.2-0.18-0.61-0.17-0.16 0-0.46 0.04c-0.83 0.12-1.65 0.32-2.44 0.53-0.8 0.2-1.63 0.41-2.44 0.52-1.18 0.16-2.41 0.22-3.6 0.27-1.13 0.06-2.29 0.11-3.44 0.25-0.6 0.08-0.98 0.23-1.18 0.5-0.25 0.32-0.24 0.78-0.16 1.41 0.82 6.02 2.31 11.75 4.41 17.01 2.18 5.46 5.09 10.59 8.66 15.23 14.82 19.3 33.62 29.03 56.04 29.03q6.81 0 14.06-1.2c19.03-3.14 34.56-13.47 46.18-30.7 3.06-4.54 5.53-9.33 7.35-14.23 1.85-4.99 3.07-10.24 3.63-15.6l0.04-0.35c0.07-0.55 0.14-1.07-0.15-1.43zm-0.84 1.31l-0.04 0.36c-0.55 5.28-1.75 10.45-3.58 15.37-1.79 4.82-4.22 9.53-7.24 14.01-11.46 16.99-26.77 27.18-45.51 30.28q-7.15 1.17-13.87 1.18c-22.11-0.01-40.66-9.6-55.28-28.64-3.51-4.57-6.38-9.61-8.53-15-2.07-5.18-3.53-10.82-4.34-16.76-0.06-0.5-0.04-0.65-0.05-0.65 0.02-0.02 0.14-0.09 0.52-0.14 1.11-0.13 2.26-0.19 3.37-0.24 1.21-0.05 2.46-0.11 3.69-0.28 0.86-0.11 1.72-0.33 2.55-0.54 0.76-0.2 1.56-0.4 2.33-0.51q0.14-0.03 0.27-0.03 0.02 0.1 0.06 0.31c0.38 2.39 0.77 4.87 1.5 7.27h-0.01c-0.2 0.25-0.27 0.57-0.2 0.87l0.06 0.24c1.37 5.43 3.41 10.07 6.18 14.11 1.45 3.12 3.64 5.63 5.76 8.06l0.53 0.61c0.59 0.68 1.51 0.88 2.38 0.48l0.54-0.25c0.28-0.12 0.47-0.36 0.55-0.65 0.07-0.29 0.01-0.59-0.17-0.83l-0.37-0.48q-0.92-1.2-1.88-2.4c-1.45-1.81-2.94-3.67-4.13-5.66q-0.18-0.29-0.46-0.5-0.06-0.34-0.23-0.62c-2.44-4.27-4.13-9.03-5.51-13.17l-0.28-0.82c-0.08-0.25-0.26-0.45-0.48-0.56l-0.1-0.48c-0.37-1.81-0.75-3.67-1.12-5.51q-0.04-0.24-0.06-0.36 0.07 0 0.19-0.01c0.85 0 1.67-0.16 2.49-0.32q0.61-0.12 1.21-0.22c1.25-0.16 1.93-0.14 2.2 0.08 0.28 0.22 0.46 0.89 0.59 2.19q0.07 0.71 0.16 1.41l-0.17 0.22c-0.17 0.21-0.24 0.5-0.19 0.77l0.04 0.21c0.88 4.92 2.81 9.71 5.88 14.57 0.78 1.7 1.86 3.12 2.93 4.52 0.34 0.45 0.76 1 1.15 1.55q0.08 0.21 0.24 0.36l0.32 0.45q0.21 0.29 0.56 0.39l4.68 4.42q0.06 0.09 0.14 0.17l0.76 0.68c0.43 0.4 0.87 0.81 1.38 1.19 10.94 8.28 23.22 11.58 36.35 9.74 9.02-1.27 16.89-4.41 23.41-9.35 6.41-4.86 11.63-11.56 15.5-19.91 2.19-4.71 3.15-9.71 3.84-14.07l0.33 0.02c1.27 0.1 2.59 0.2 3.9 0.22q-0.02 0.07-0.03 0.16c-0.22 1.54-0.48 3.1-0.73 4.63-0.37 0.03-0.68 0.26-0.83 0.6l-0.52 1.25q-0.18 0.34-0.33 0.85c-2.04 8.02-5.74 15.11-10.99 21.05-2.95 3.34-6.34 6.37-10.08 8.99-3.55 2.48-7.52 4.69-11.76 6.53q-0.08 0.03-0.12 0.05c-4.3 1.63-8.61 2.71-12.83 3.22-4.42 0.53-8.88 0.45-13.25-0.24-4.21-0.68-8.4-1.85-12.45-3.47q-5.82-2.33-11.56-6.01l-0.11-0.06c0 0-0.1-0.04-0.14-0.06l-6.17-4.86c-0.23-0.18-0.53-0.25-0.82-0.18-0.29 0.06-0.53 0.25-0.66 0.52l-0.26 0.53c-0.33 0.66-0.47 1.65 0.75 2.69l0.9 0.8c1.57 1.38 3.19 2.81 5.08 3.95l0.3 0.18q0.14 0.08 0.3 0.11c7.2 4.97 15.24 8.05 23.81 9.12q0.28 0.09 0.46 0.09c2.56 0.48 5.13 0.71 7.86 0.71q3.73 0 7.81-0.6c3.77-0.55 8.12-1.31 12.08-3.33 2.87-0.73 5.32-2.08 8-3.64 6.97-4.05 12.8-9.06 17.33-14.88 4.46-5.73 7.77-12.41 9.86-19.84q0.12-0.15 0.17-0.33c0.89-2.83 1.3-5.66 1.58-8.06 0.01-0.06 0.03-0.2 0.05-0.32q0.06 0.01 0.15 0.02l0.98 0.17c3.54 0.58 7.19 1.19 10.83 1.49 0.44 0.04 0.62 0.12 0.64 0.12 0.03 0.11-0.01 0.46-0.04 0.7z"/>
		<path class="s0" d="m397.97 373.65l-0.22-0.87-1.24 1.36c0.22-1.36 0.23-2.78 0.02-4.49l-1 0.07c0 1.19-0.24 2.32-0.71 3.46 0.06-2.23-0.13-3.97-0.61-5.49l-1.37-4.24 0.41 4.58c0.13 1.5 0.27 3.05-0.72 4.7l0.02-5.68-0.97 3.27q-0.14-0.42-0.24-0.77c-0.13-0.4-0.23-0.72-0.29-1.04l-0.03-0.2c-0.1-0.63-0.22-1.33-0.83-1.37-0.7 0-0.92 0.8-1.13 1.54q-0.35 1.29-0.69 2.56l-0.03 0.11q-0.5 1.86-1.04 3.75c-0.39 1.32-0.81 2.64-1.26 4.04l-0.66 2.1 3.5-1.48c2.66-1.12 5.17-2.18 7.67-3.3 0.93-0.42 1.83-1.06 1.42-2.61zm-10.98 5.62v-0.03c0.46-1.4 0.88-2.73 1.27-4.06 0.36-1.25 0.71-2.53 1.04-3.77l0.03-0.11q0.34-1.25 0.72-2.65h0.01l0.01 0.03c0.06 0.39 0.17 0.74 0.32 1.2q0.1 0.31 0.23 0.72c0.12 0.4 0.49 0.69 0.91 0.7v1.43c0 0.44 0.29 0.82 0.7 0.94 0.42 0.12 0.87-0.05 1.1-0.41q0.31-0.48 0.5-0.96 0 0.42-0.01 0.85c-0.01 0.46 0.31 0.87 0.76 0.98 0.36 0.08 0.74-0.05 0.97-0.33q-0.01 0.09-0.02 0.18c-0.07 0.43 0.14 0.85 0.53 1.04q0.26 0.12 0.52 0.1-0.18 0.11-0.44 0.23c-2.48 1.11-4.99 2.17-7.68 3.3z"/>
		<path class="s0" d="m476.79 398.18q-0.15-0.17-0.37-0.18c-1.55-0.03-3.12-0.03-4.64-0.04-7.04-0.03-14.3-0.06-21.39-1.93q0.05-0.03 0.1-0.04c2.18-0.85 4.24-1.66 6.21-2.68l1.25 0.73c0.16 0.1 0.37 0.09 0.52-0.02l0.25-0.18c4.3-3.05 7.55-6.86 10.16-10.19l0.59-0.75c0.11-0.14 0.13-0.34 0.05-0.5q-0.02-0.05-0.04-0.08c0.83-0.9 1.62-1.88 1.66-3.47 0.01-0.17-0.08-0.33-0.23-0.42-0.14-0.09-0.32-0.1-0.47-0.02l-4.11 2.2c-4.69 1.7-9.09 2.7-13.44 3.06-6.65 0.56-13.28-0.23-20.24-2.43q0.53-0.96 1.04-1.91c1.08-1.98 2.1-3.86 3.16-5.74 0.51-0.89 1.12-2.25 0.63-3.69-0.58-1.66-0.19-3.21 0.34-4.92 0.29-0.96 0.59-1.95 0.88-2.9q0.18-0.63 0.38-1.25c0.45-0.86 0.88-1.76 1.29-2.63 0.77-1.64 1.58-3.35 2.63-4.86q0.15-0.2 0.29-0.4c1.97-2.84 3.83-5.52 7.72-6.01 2.66-0.33 5.06-1.32 7.11-2.94 1.85-1.46 3.49-3.48 4.86-6.01 2.21-4.06 3.87-8.45 4.92-13.06 0.99-4.31 1.48-8.97 1.47-13.83-0.01-4.27-0.3-8.81-2.28-13.11-1-2.15-2.49-3.7-4.32-4.46-1.82-0.76-3.97-0.76-6.24 0-1.76 0.59-3.39 1.47-4.84 2.6-5.99 4.67-10.88 10.8-15.38 19.28-2.41 3.98-3.93 7.84-4.64 11.78-0.98 5.48 1.36 9.97 3.79 13.63 1.05 1.59 1.48 3.27 1.32 5.14-0.56 6.26-2.7 11.98-5.04 17.78-0.22 0.53-0.22 0.54-0.62 0.4-4.47-1.52-9.14-1.54-13.66-1.57q-0.73 0-1.47-0.01-0.2 0-0.38 0.02-0.1 0-0.2 0c3.18-1.42 4.19-4.64 5.02-7.28 7.87-25.07 15.59-50.27 22.77-73.77q0.31-1.01 0.64-2.01c0.94-2.89 1.91-5.88 1.85-9.07-0.04-2.12-0.84-3.83-2.25-4.82-1.35-0.95-3.12-1.15-5-0.57l-0.26-0.19c-0.13-0.11-0.32-0.13-0.48-0.06l-0.25 0.11c-1.45 0.62-3.23 1.72-5.46 5.17-7 10.82-10.95 22.55-15.04 35.65l-0.08 0.27c-0.05 0.16-0.01 0.34 0.1 0.46l0.11 0.12q-0.03 0.08-0.06 0.16c-2.88 9.17-5.69 19.14-8.85 31.38q-0.42 1.69-0.81 3.36c-0.42 1.81-0.86 3.68-1.4 5.48-0.31 1.02-0.51 2.08-0.7 3.1-0.35 1.84-0.68 3.58-1.58 5.2-0.47 0.83-0.29 1.85 0.46 2.66 0.79 0.85 0.85 2.17 0.82 3.08-0.01 0.69-0.14 1.11-0.39 1.33q-0.32 0.27-1 0.19c-1.15-0.13-1.42-0.3-1.28-1.58 0.57-5.22 1.98-10.35 3.34-15.31l0.23-0.84c0.97-3.55 1.97-7.22-0.21-11.03-2.06-3.59-5.18-6.14-9.53-7.79-2.72-1.04-4.96-1.52-7.06-1.52-2.53 0-4.05-1.07-5.41-3.78-3.88-7.72-9.15-14.66-15.66-20.64-5.86-5.37-13.04-9.84-21.97-13.65-0.65-0.28-0.75-0.48-0.76-0.54-0.01-0.06 0-0.26 0.39-0.71 1.31-1.51 1.32-3.06 0.02-4.74-0.67-0.87-1.06-1.94-1.46-3.13q-0.72-2.16-1.45-4.31c-1.22-3.62-2.49-7.37-3.67-11.06-0.56-1.75-1.04-3.54-1.54-5.44q-0.1-0.4-0.21-0.81 0.29 0.51 0.52 1.02 0.12 0.25 0.24 0.5c1.26 2.54 3 4.01 4.9 4.15q0.15 0 0.3 0c1.8 0 3.61-1.19 5.13-3.38 1.46-2.11 3.21-3.66 5.34-4.74l0.14-0.07c1.83-0.92 3.72-1.88 5.35-3.25 2.46-2.08 3.52-4.73 3.16-7.88-0.33-2.86-1.36-5.63-3.25-8.71-1.55-2.53-3.2-5.6-3.77-9.13-0.77-4.87-3.33-8.97-7.59-12.19-3.74-2.83-8.21-4.87-13.65-6.24-13.99-3.51-28.14-3.45-40.15-2.93-4.09 0.17-7.72 0.98-11.11 2.48-2.65 1.17-4.99 2.83-7.26 4.45q-0.99 0.71-2.02 1.42c-2.4 1.64-4.64 1.84-7.05 0.63-4.25-2.14-8.81-2.4-13.94-0.79-9.79 3.07-17.23 9.59-22.13 19.38-4.04 8.1-7.17 17.17-9.84 28.54-1.04 4.42-0.95 7.6 0.29 10.02 1.33 2.6 4.06 4.4 8.37 5.49 0.06 0.04 0.15 0.1 0.29 0.11 0.67 0.08 0.86 0.24 0.84 1.18-0.08 3.62 1.57 5.71 5.19 6.59 4.11 0.99 8.05 0.29 11.72-2.09q0.17-0.11 0.31-0.23c0.07-0.05 0.17-0.13 0.24-0.17q0.06 0.06 0.23 0.42c2.24 5.21 4.37 10.34 5.7 15.7q0.35 1.41 0.68 2.8c1.13 4.7 2.3 9.55 4.38 14.06 0.21 0.46 0.06 0.78-0.22 1.31l-0.02 0.03c-0.84 1.55-1.7 3.12-2.53 4.64-0.74 1.33-1.5 2.72-2.24 4.08-0.36 0.66-0.86 0.98-1.8 1.13l-0.46 0.07c-2.7 0.44-5.5 0.89-8.22 1.48-4.24 0.91-8.68 2.05-12.31 5.03-2.3 1.88-3.18 4.12-2.7 6.84 0.64 3.55 1.1 6.7 1.41 9.63 0.41 3.81 0.5 7.31 0.27 10.6-1.13-5.22-2.43-11.53-3.54-17.95-0.44-2.52 0.18-4.87 1.74-6.61 0.97-1.08 1.39-2.25 1.35-3.8-0.07-2.85-0.43-5.89-1.11-9.58-2.15-11.52-5.03-23.99-9.07-39.26q-0.07-0.31-0.12-0.71c-0.1-0.74-0.21-1.57-0.81-1.99q-0.49-0.35-1.2-0.18-0.55 0.12-0.83 0.55c-0.4 0.65-0.19 1.58 0 2.41q0.08 0.3 0.12 0.56c0.62 3.55 1.26 7.16 1.89 10.65 0.95 5.3 1.93 10.77 2.84 16.17 0.19 1.17 0.43 2.34 0.66 3.48 0.5 2.49 1.02 5.04 1.11 7.63-0.86-2.77-1.41-5.64-1.96-8.43-0.28-1.48-0.58-3.01-0.92-4.51-0.5-2.23-1-4.49-1.47-6.68-1.39-6.37-2.82-12.96-4.68-19.34q-0.06-0.2-0.11-0.41c-0.22-0.83-0.48-1.86-1.67-2.5q-0.24-0.11-0.48 0.02c-0.14 0.08-0.23 0.24-0.23 0.41v0.45q-0.01 0.38 0 0.7c1.19 14.2 2.93 24.92 5.63 34.77 0.65 2.37 1.17 4.58 0.91 7.11q-0.12-0.31-0.21-0.59c-1.17-3.49-1.77-7.19-2.35-10.76-0.32-1.97-0.66-4.01-1.08-6.01-0.34-1.6-0.68-3.23-1-4.82-1.1-5.41-2.24-11.02-3.96-16.4l-0.06-0.19c-0.34-1.08-0.74-2.32-2.19-3.3-0.16-0.1-0.37-0.1-0.53 0-0.16 0.1-0.24 0.29-0.21 0.48 0.66 4.09 1.37 8.21 2.05 12.2 1.76 10.34 3.43 20.14 4.61 30.18-1.53-3.73-2.37-7.74-3.18-11.62l-0.14-0.7c-0.72-3.41-1.39-6.89-2.03-10.25-1.03-5.37-2.1-10.93-3.38-16.35q-0.04-0.14-0.06-0.31c-0.09-0.56-0.27-1.71-1.57-1.52-1.14 0.17-1.19 1.24-1.23 1.88q0 0.13-0.01 0.25c-0.13 1.62 0.16 3.2 0.44 4.73q0.08 0.45 0.16 0.89 0.47 2.71 0.93 5.42c1.36 7.92 2.77 16.12 4.27 24.16 0.21 1.13 0.4 2.3 0.57 3.43 0.53 3.35 1.08 6.82 2.45 10.07 0.72 1.71 1.66 3.6 3.74 4.38 2.22 0.83 3.64 2.51 4.33 5.12 0.67 2.55 1.27 5.17 1.85 7.7q0.42 1.78 0.84 3.61c0.45 1.87 0.89 3.72 1.36 5.68q0.24 1 0.49 2.02c-0.23-0.03-0.4-0.04-0.56-0.07-5.37-0.76-11.09-1.45-16.73-0.86-0.99 0.1-1.04-0.17-1.17-0.89-0.48-2.6-1.02-6.04-0.9-9.58q0.03-0.67 0.05-1.33c0.15-3.86 0.3-7.85-0.69-11.77-1.84-7.28-4.83-14.5-9.13-22.05q-0.05-0.1-0.11-0.22c-0.21-0.43-0.57-1.15-1.51-1.1q-0.21 0.01-0.35 0.17c-0.48 0.58-0.31 1.19-0.19 1.6q0.04 0.13 0.06 0.25c0.74 3.47 1.49 7 2.22 10.42l0.61 2.83c0.26 1.24 0.34 2.3-0.11 3.31-0.33-0.44-0.47-0.98-0.61-1.54-0.29-1.13-0.52-2.31-0.75-3.44q-0.09-0.51-0.2-1.02c-0.88-4.4-3.34-10.19-5.15-12.17-0.15-0.15-0.38-0.2-0.57-0.1-0.2 0.1-0.3 0.31-0.26 0.52 0.32 1.58 0.69 3.16 1.04 4.68 1.04 4.51 2.03 8.79 2.07 13.25-1.77-3.7-2.81-7.71-3.83-11.6-0.47-1.85-0.97-3.76-1.54-5.62-0.04-0.14-0.15-0.26-0.28-0.31q-0.22-0.07-0.42 0.03c-0.91 0.54-0.78 1.24-0.72 1.62q0.02 0.09 0.03 0.17c0.22 2.54 0.45 5.12 0.67 7.62 0.37 4.2 0.75 8.54 1.1 12.81 0.52 6.35 2.82 10.68 7.01 13.26 3.29 2.01 4.75 4.82 6.05 8.72 0.71 2.14 1.05 3.74-1.16 4.84-0.19 0.09-0.41 0.31-0.42 0.63q0 0.07 0.02 0.17-0.03 0.02-0.05 0.03c-2.34 1.52-3.1 3.49-2.33 6.03q0.33 1.09 0.64 2.17c0.46 1.57 0.94 3.2 1.49 4.78 0.16 0.44 0.15 0.59 0.14 0.64-0.11 0.07-0.56 0.11-0.76 0.13-5.1 0.49-10.57 0.35-16.73-0.42-8.15-1.01-14.67-2.88-20.51-5.87-2.26-1.17-4.38-2.65-6.43-4.09q-1.22-0.86-2.49-1.72-0.09-0.06-0.2-0.15c-0.31-0.26-0.9-0.75-1.68-0.19-0.92 0.66-0.68 1.67-0.59 2.05 0.1 0.41 0.27 0.78 0.46 1.16 2.03 4.11 4.51 7.8 7.38 10.96 2.95 3.27 6.39 6.09 10.23 8.37 0.5 0.3 1 0.61 1.55 0.97-6.4 0.2-12.69-0.39-19.16-1.78-2.13-0.45-4.29-0.98-6.38-1.48q-0.89-0.22-1.79-0.44c-0.54-0.13-2.18-0.52-2.87 1.03-0.5 1.13 0.47 1.6 0.94 1.83q0.22 0.1 0.35 0.19c4.64 3.46 9.77 6.26 15.68 8.56 7 2.72 14.72 4.67 25.05 6.33q1.76 0.27 3.5 0.57c8.28 1.35 16.83 2.74 25.4 2.9q0.81 0.01 0.99 0.21c0.15 0.17 0.13 0.66 0.09 1.01q-0.03 0.41-0.06 0.82-0.1 0.71-0.09 1.55c-0.06 1.74 0.03 3.26 0.28 4.65l0.11 2.66c0.01 0.25 0.2 0.44 0.45 0.46q0.17 0.01 0.3-0.08 0.06 0.16 0.14 0.33 0.2 0.47 0.45 0.89c0.3 0.55 0.59 1.06 0.62 1.55 0.16 2.49 0.32 4.84 2.32 7.06q0.29 0.32 0.54 0.64c0.88 1.04 1.79 2.12 3.68 2.56 0.22 0.05 0.44-0.06 0.54-0.26 0.1-0.21 0.04-0.45-0.14-0.59-0.05-0.04-0.07-0.07-0.04-0.33 0.02-0.23 0.05-0.56-0.2-0.82-0.25-0.24-0.6-0.24-0.84-0.22q-0.21 0.02-0.38 0.05l0.31-0.23c1.11-0.79 0.83-2.18 0.39-2.88q-0.3-0.47-0.71-0.48c-0.43-0.02-0.69 0.32-0.89 0.6-0.07 0.09-0.19 0.24-0.24 0.27q-0.2 0.11-0.41 0.23c-0.12 0.07-0.31 0.19-0.4 0.22-0.85-0.34-1.5-1.75-1.55-3.18q0.03 0.03 0.06 0.08c0.23 0.28 0.51 0.64 0.99 0.82 0.17 0.07 0.36 0.03 0.5-0.09 0.13-0.12 0.18-0.31 0.13-0.49-0.37-1.28-0.59-2.43 0.56-3.57 0.16-0.16 0.19-0.4 0.07-0.6-0.12-0.19-0.35-0.27-0.57-0.19q-1.29 0.46-1.95 0.13c-0.6-0.3-0.85-1.14-1.12-2.04l0.04-0.01q0.38 0 0.81-0.25l0.23-0.14c0.14-0.09 0.23-0.25 0.23-0.42l-0.08-8.5c0-0.22-0.16-0.41-0.38-0.46q-0.03-0.01-0.06-0.01c-0.08-0.58-0.43-1.12-0.8-1.63-1.76-2.43-2.42-4.56-2.12-6.92 0.17-1.4 0.12-2.88-0.16-4.29q0.55-1.42-0.26-2.95c0.05-0.44 0.2-0.57 0.62-0.6 0.34-0.02 0.7 0.22 1.04 0.45 0.42 0.28 0.89 0.6 1.43 0.43 0.33-0.11 0.59-0.29 0.85-0.47 0.47-0.33 0.76-0.51 1.23-0.34 0.67 0.23 1.14 0.14 1.46-0.06 0.56 0.42 1.23 0.51 1.82 0.6l0.16 0.02q0.36 0.05 0.72 0.1c1.49 0.21 3.04 0.43 4.54 0.75 2 0.43 2.5 0.89 2.46 2.78-3.52-1.5-6.94-1.91-10.44-1.25-0.78 0.14-1.35 0.34-1.61 0.81-0.28 0.48-0.1 1.07 0.09 1.58 0.27 0.7 0.49 1.28 0.71 1.8 1.12 2.64 1.32 4.72 0.66 6.74-0.35 1.1 0.03 2.21 0.95 2.78 2.34 1.43 3.96 3.53 4.97 6.43q0.05 0.49 0.09 0.99c0.08 0.81 0.17 1.66 0.22 2.49 0.03 0.51-0.04 0.63-0.35 0.68q-0.05-0.07-0.11-0.12c-0.17-0.2-0.42-0.49-0.81-0.41-0.43 0.09-0.57 0.56-0.63 0.76-0.28 0.91 0.55 1.21 0.91 1.33q0.18 0.06 0.3 0.12c0.74 0.42 1.34 1.03 1.72 1.75l-0.94-0.03c-0.91-0.02-1.42-0.24-2.05-0.64-0.04-0.03-0.16-0.15-0.22-0.21-0.32-0.34-0.8-0.84-1.51-0.76-0.31 0.03-0.75 0.19-1.09 0.76l-0.06 0.09c-0.34 0.56-0.91 1.5-0.59 2.51q0.3 0.95 1.46 1.49l0.63 0.28c0.14 0.06 0.31 0.05 0.44-0.03q0.21-0.13 0.24-0.37l0.07-1.04q0.48 0.2 1.07 0.25-0.27 0.14-0.46 0.27l-0.35 0.22c-0.21 0.12-0.28 0.38-0.19 0.6l0.17 0.38c0.22 0.49 0.6 0.77 0.88 0.98q0.08 0.06 0.17 0.13 0 0-0.01 0.02c-0.15 0.36-0.11 0.75 0.1 1.05 0.24 0.33 0.57 0.43 0.85 0.46 0.18 0.32 0.58 0.69 1.2 1.28 0.18 0.17 0.47 0.17 0.66 0 2.25-2.1 2.02-4.81 1.83-7.2-0.1-1.2-0.46-2.35-0.81-3.46-0.47-1.5-0.91-2.91-0.77-4.45 0.05-0.54-0.17-1.08-0.36-1.55q-0.11-0.24-0.19-0.47c-0.85-2.45-2.16-4.65-3.58-6.84 2.24-0.6 4.76-1.41 7.1-2.81 1.21-0.73 2.01-1.47 2.5-2.34q0.43-0.78 0.52-1.67-0.01 0.59-0.05 1.16c-0.12 2.68-0.24 5.44 1.69 7.87 0.58 0.74 0.59 1.4 0.39 2.43q-0.07 0.41-0.16 0.83c-0.82 4.26-1.66 8.66 0.02 12.86q0.23 0.59 0.47 1.16c1.09 2.67 2.13 5.19 2.13 8.08 0 1.15 0.71 1.94 1.34 2.64 0.4 0.43 0.78 0.85 0.9 1.28 0.54 1.87 1.44 2.76 3.33 3.27q0.53 0.15 1.11 0.36c0.58 0.2 1.18 0.41 1.82 0.53 0.17 0.03 0.39 0.19 0.6 0.34 0.32 0.23 0.72 0.52 1.19 0.52q0.11 0 0.21-0.02 0.62-0.11 1.17-0.9c0.3-0.44 0.78-0.79 1.29-1.16q0.52-0.37 1.01-0.82c1.75-1.66 2.79-3.26 2.21-5.63q0.01-0.05 0.05-0.1 0.05-0.09 0.11-0.2c0.34-0.75 0.84-2.22 0.3-3.56-1.03-2.54-1.25-5.14-1.48-7.89q-0.09-1.06-0.19-2.14c-0.47-4.52-2.72-8.29-5.07-11.69-0.69-0.99-1.03-1.77-0.75-2.77 0.79-2.83 0.33-5.58-1.42-8.42q-0.23-0.39-0.47-0.76-0.47-0.74-0.92-1.51c-0.09-0.16-0.34-0.59-0.33-0.73 0.03-0.02 0.18-0.14 0.76-0.22 2.51-0.35 5.03-0.91 7.46-1.44q0.87-0.19 1.74-0.38c1.92-0.41 3.08-1.64 3.54-3.76 0.38-1.76-0.02-3.39-0.41-4.97q-0.14-0.57-0.27-1.12 0.2 0.42 0.39 0.85 0.64 1.41 1.33 2.82c6.55 13.2 14.97 22.98 25.74 29.88 9.91 6.36 21.27 9.95 34.7 10.97 8.99 0.68 17.53-0.08 25.4-2.25 8.14-2.25 15.82-6.09 22.81-11.4 7.12-5.41 13.32-12.15 18.96-20.63 0.15-0.23 0.46-0.7 0.66-0.72 0.06-0.01 0.26 0.02 0.72 0.43 1.28 1.16 2.93 1.63 4.37 1.94 1.27 0.27 2.55 0.26 3.78 0.25 0.82-0.01 1.66-0.02 2.5 0.06-0.6 2.09-1.07 4.01-1.12 6-0.02 0.95-0.25 1.83-1.31 3.03-2.75 3.12-5.68 6.85-5.76 11.73-0.04 2.48-0.82 4.47-1.66 6.24-1.76 3.7-1 8.16 1.84 10.86q0.01 0 0.03 0.02c0.3 0.25 0.68 0.28 1.03 0.08q0.08-0.05 0.14-0.11c0.68-0.84 0.5-1.59 0.13-2.2q0.28-0.1 0.46-0.2 0.04-0.03 0.07-0.04c0.25 0.1 0.63 0.2 1 0.05q-0.01 0.24 0.09 0.48 0.29 0.68 1.5 0.89c0.22 0.04 0.73 0.18 0.75 0.67 0.01 0.14 0 0.2-0.49 0.36q-0.13 0.05-0.27 0.1-1.37 0.56-2.24 1.45-0.01 0.01-0.03 0.03c-0.17 0.21-0.54 0.66-0.31 1.27q0.02 0.03 0.04 0.08c0.24 0.39 0.64 0.63 1.06 0.65 0.35 0.02 0.68-0.13 0.87-0.39 0.35-0.47 0.85-0.59 1.43-0.73 0.42-0.1 0.85-0.21 1.24-0.45 0.36-0.21 0.88-0.24 1.38-0.27 0.82-0.05 1.85-0.11 2.25-1.14 0.37-0.95 1.02-1.63 1.71-2.34 0.44-0.45 0.88-0.91 1.26-1.45 1.09-1.57 1.26-3.39 1.42-5.15q0.03-0.29 0.06-0.57v-0.04c0.07-0.65 0.11-1.13 0.54-1.58 1.62-1.74 2.22-3.98 2.62-6.14 0.31-1.66 0.47-3.42 0.5-5.39q0.05-0.92-0.01-1.77c0-0.27 0.02-0.37 0.04-0.41 0.04-0.01 0.18-0.02 0.51 0.06 0.89 0.23 1.8 0.39 2.68 0.54 0.85 0.14 1.72 0.29 2.55 0.5 0.29 0.07 0.61 0.08 0.92 0.09 0.66 0.01 0.9 0.05 0.96 0.26 0.06 0.25-0.4 0.66-0.78 0.99q-0.26 0.24-0.51 0.48c-2.23 2.35-4.53 5.3-4.59 9.35-0.02 1.17-0.28 1.97-0.87 2.69-2.06 2.54-1.92 5.64-1.79 8.38q0.02 0.35 0.03 0.71c0.05 1.23 0.88 2.26 1.68 3.25 0.6 0.75 1.23 1.53 1.51 2.39q0.13 0.36 0.51 0.52c0.36 0.14 0.82 0.09 1.21-0.12 1.38-0.76 2.91-1.14 4.68-1.16 0.88-0.01 1.66-0.54 2.09-1.41 0.37-0.74 0.88-1.3 1.71-1.89 1.1-0.77 1.8-1.83 1.98-2.96 0.42-2.7 1.64-5.01 2.93-7.45l0.19-0.36c1.97-3.74 1.88-8.01 1.59-11.31q-0.09-0.95 0.15-1.17c0.19-0.2 0.78-0.17 1.2-0.13 2.65 0.24 5.47 0.48 8.27 0.52 0.88 0 1.78 0.03 2.65 0.04 4.99 0.09 10.14 0.18 15.22-0.52 4.13-0.57 8.41-1.73 13.08-3.55 4.14-1.62 8.16-3.57 12.26-5.59q0.06-0.03 0.12-0.06c0.42-0.2 1.05-0.5 1.26-1.44q0.04-0.22-0.09-0.4zm-42.46-66.79c-0.63-7.45 3.51-15.98 8.4-21.64 3.5-4.05 12.9-15.93 18.56-14.19 3.08 0.95 6.18 5.29 6.15 12.3 0 1.38-0.13 11.4-2.01 17.97-1.04 3.66-5.57 13.96-7.42 15.62-4.87 4.38-11.72 3.95-16.26 9.39-1.72 2.06-3.15 4.36-4.26 6.81 0.2-0.43-0.39-2.31-0.38-2.94 0.04-1.13 0.29-2.25 0.56-3.34 0.56-2.29 1.47-4.53 1.69-6.9 0.43-4.86-4.61-8.21-5.03-13.08zm-5.24 75.66c0.17-0.07 0.28-0.23 0.29-0.41 0.01-0.2-0.11-0.39-0.29-0.47-1.04-0.44-2.05-0.44-2.94-0.43q-0.67 0.01-1.29-0.05c0.15-0.17 0.4-0.18 0.86-0.19 0.54-0.01 1.21-0.02 1.78-0.52 0.15-0.13 0.21-0.34 0.14-0.53-0.07-0.19-0.25-0.31-0.45-0.31h-1.46c0.26-0.33 0.5-0.77 0.28-1.45q-0.62-1.85 1.03-3.49c1.15-1.14 1.48-2.59 1.69-3.86q0.13-0.72 0.24-1.45c0.37-2.27 0.75-4.62 1.54-6.85l0.1-0.28c0.52-1.46 0.8-2.27 1.22-2.49 0.42-0.23 1.28-0.03 2.85 0.32l0.12 0.03c5.57 1.25 10.97 1.73 16.04 1.4 5.4-0.34 10.62-1.59 15.54-3.71 0.36-0.1 0.69-0.27 0.99-0.44q0.33-0.15 0.65-0.31-0.18 0.22-0.35 0.49c-0.31-0.03-0.73-0.03-1.07 0.3-2.88 2.7-5.79 5.47-8.6 8.14l-0.83 0.79c-3 1.28-6.5 2.69-10.2 3.41-1.92 0.37-2.31 1.19-2.3 1.81 0.02 1.15 1.09 1.24 1.73 1.3q0.34 0.02 0.58 0.08c7.78 2.24 15.6 2.45 22.9 2.35q0.64-0.01 1.32-0.01c-6.57 3.59-13.65 5.81-21.59 6.78-6.08 0.74-12.68 0.77-20.52 0.05zm-9.36 1.77c-0.27 0.58-0.41 1.21-0.53 1.8q-0.05 0.24-0.11 0.5c-0.37 1.58-0.49 3.3-0.36 5.24 0.02 0.24 0.2 0.43 0.44 0.45 0.23 0.02 0.45-0.14 0.5-0.37l0.65-2.7c0.38 2.79-0.4 5.51-2.43 8.56-0.21 0.32-0.54 0.42-0.66 0.41-0.28-0.41-0.62-0.8-1.07-0.74-0.47 0.06-0.64 0.54-0.75 0.89q-0.03 0.08-0.07 0.18c-0.24-0.1-0.45-0.04-0.58 0.07-0.39 0.32-0.12 0.94-0.06 1.06q0.14 0.3 0.4 0.59c0.16 0.18 0.15 0.29-0.07 0.76q-0.03 0.06-0.06 0.12-0.08 0.18-0.19 0.36c-0.24 0.42-0.54 0.95-0.31 1.47 0.2 0.45 0.68 0.64 1.09 0.75q-0.04 0.15-0.04 0.34c0.01 0.19-0.19 0.45-0.39 0.7-0.35 0.44-0.96 1.21-0.3 2.08q-0.07 0.06-0.13 0.1-0.06-0.03-0.12-0.08c-0.37-0.27-1-0.72-1.03-0.99-0.12-1.02-0.54-1.48-1.49-1.65q-0.36-0.07-0.77-0.05l0.31-0.29c1.06-1.02 1.1-2.04 1.12-2.8 0.01-0.25 0.02-0.48 0.07-0.63q0.29-0.9-0.13-1.48c-0.15-0.21-0.51-0.56-1.22-0.56-0.24 0-0.58 0.05-0.89 0.28-0.26 0.19-0.57 0.58-0.57 1.32v4.28q0 0.24 0.19 0.38-0.14 0.14-0.26 0.32c-0.9 1.37-1.62 2.88-1.03 4.74-0.4-0.11-0.78-0.13-1.13 0.03q-0.58 0.28-0.81 1.17 0 0-0.01-0.02c-0.69-1.74-1.58-3.17-2.71-4.38-0.1-1.31 0.16-2.22 0.83-2.93q0.16-0.16 0.13-0.37-0.02-0.21-0.19-0.35c-0.88-0.64-0.69-1.24-0.25-2.34q0.11-0.24 0.2-0.5c0.04-0.12 0.15-0.26 0.22-0.33 0.39 0.26 0.92 0.53 1.39 0.33 0.5-0.2 0.59-0.76 0.67-1.2 0.03-0.16 0.07-0.38 0.11-0.45q0.12-0.2 0.19-0.38c0.16-0.34 0.22-0.42 0.42-0.44 2.07-0.25 2.03-2.11 2.01-2.82q0.01-0.07-0.02-0.13c-0.28-0.88-1.1-0.72-1.37-0.67-0.24 0.05-0.41 0.26-0.39 0.5q0.02 0.22 0.04 0.42c0.11 0.79 0.03 0.81-0.15 0.84-0.3 0.06-0.48-0.19-0.72-1.04l-0.04-0.12c-0.63-2.15 0.58-3.86 1.75-5.53q0.15-0.23 0.32-0.45c1.18-1.71 2.52-3.65 4.94-4.29 0.51-0.13 0.98-0.53 1.26-1.06 0.31-0.6 0.35-1.29 0.11-1.94q-0.06-0.15-0.11-0.32 0.08-0.13 0.09-0.28l0.03-3.41q0-0.2-0.14-0.34l-0.11-0.12c0.32-0.75 0.82-1.4 1.35-2.1q0.32-0.42 0.64-0.86 0.01-0.03 0.03-0.06l0.37-0.7 0.01-0.01q0.19-0.42 0.37-0.83c0.25-0.6 0.49-1.16 0.86-1.59q0.32-0.39 0.62-0.84c0.46-0.67 0.98-1.42 1.45-1.33 1.19 0.24 2.52 1.06 3.75 2.31 0.2 0.21 0.17 0.52 0.09 1.02q-0.02 0.12-0.03 0.25c-0.12 0.86-0.24 1.75-0.37 2.6q-0.17 1.14-0.32 2.32c-0.39 2.89-1.37 4.67-3.18 5.79-0.68 0.42-1.08 0.96-1.35 1.54zm-15.65-16.14c-0.31 0.93-0.63 1.89-0.68 2.94-0.15 2.71-1.08 4.59-2.93 5.93-1.24 0.9-1.52 2.24-0.75 3.67q0.08 0.15 0.14 0.28h-0.61q-0.19 0-0.34 0.13-0.14 0.15-0.14 0.34v9.34c0 0.26 0.21 0.47 0.47 0.48h0.67q-0.35 0.74-0.79 1.52c-0.36 0.63-0.86 0.66-1.71 0.66-0.35-0.01-0.72-0.01-1.07 0.07q-0.93 0.18-1.24 0.78c-0.28 0.53-0.08 1.14 0.09 1.54 0.27 0.61 0.35 1.28 0.44 1.99 0.13 0.99 0.27 2.02 0.91 2.98 0.27 0.41 0.16 1.24-0.37 1.63-0.26 0.2-0.37 0.19-0.88-0.35q-0.21-0.22-0.43-0.41-1.07-0.87-2.18-1.06 0.06-0.06 0.09-0.11 1.14-0.69 1.37-1.77c0.28-1.29-0.6-2.48-0.98-2.99-0.45-0.62-0.95-0.76-1.28-0.77-0.76-0.03-1.23 0.53-1.58 0.94-0.08 0.09-0.24 0.27-0.31 0.33-0.49 0.21-1.05 0.36-1.64 0.51q-0.48 0.13-1 0.28l-1.09 0.33c-0.19 0.05-0.32 0.21-0.34 0.41-0.02 0.19 0.07 0.37 0.24 0.47l1 0.55c1.46 0.81 2.66 0.53 3.63 0.06-0.07 0.5-0.05 1.08 0.3 1.67l0.1 0.16q-0.49 0.13-0.94 0.42 0.14-0.17 0.11-0.39-0.05-0.27-0.31-0.37l-0.8-0.29q-0.25-0.09-0.48-0.21c-0.32-0.15-0.68-0.32-1.09-0.3-0.24-0.16-0.72-0.49-1.32-0.3-0.6 0.2-0.84 0.78-0.93 1.03q-0.1-0.3-0.25-0.59c-0.55-1.16-0.24-2.22 0.84-2.92 0.61-0.39 1.1-0.9 1.58-1.39 0.58-0.6 1.13-1.16 1.86-1.5q1.07-0.5 0.83-2.22c-0.03-0.27-0.14-1.1-0.95-1.3-0.92-0.23-1.17 0.55-1.28 0.88q-0.01 0.04-0.03 0.09l-0.02 0.04c0 0-0.02 0.05-0.03 0.08q-0.03-0.05-0.06-0.12c-0.43-1.25-0.21-3.47 0.57-5.8 0.77-2.33 1.93-4.22 3.02-4.95q0.15-0.09 0.26-0.2 0.09-0.08 0.19-0.15 0.6 0.5 1.18 0.44c0.61-0.06 0.99-0.57 1.28-0.94q0.09-0.12 0.17-0.22c1.37-1.62 1.71-3.29 0.99-4.94-0.63-1.45-0.61-2.9 0.07-4.86q0.22-0.55 0.49-1.13c0.39-0.84 0.79-1.69 0.82-2.69q0.06-0.03 0.1-0.09 0.02-0.02 0.04-0.04l1.53-1.76c0.15-0.18 0.15-0.43 0.02-0.61q-0.07-0.09-0.18-0.14 0.04-0.26 0.08-0.54l0.24-0.52c1.08-2.34 1.79-4.81 2.47-7.2 0.29-0.98 0.58-2 0.89-2.98l0.08-0.25q0.07-0.22-0.06-0.41 0.29-0.78 0.63-1.55c1.04-2.42 2.12-4.94 0.56-7.87q-0.04-0.09-0.06-0.23-0.01-0.1-0.04-0.22c-0.09-0.35-0.05-0.48-0.04-0.5 0.02-0.01 0.14-0.04 0.41 0.02 0.53 0.13 1.52 0.36 2.06-0.6q0.11-0.19 0.21-0.37c0.83-1.45 1.68-2.96 1.13-5q-0.16-0.58-0.42-1.12c-0.55-1.28-0.84-2.11 0.23-3.02 0.27-0.22 0.27-0.62 0.16-0.91-0.45-1.14-0.11-2.22 0.24-3.37q0.19-0.58 0.33-1.18c2.92-12.57 6.21-24.97 9.76-36.87 0.17-0.58 0.38-1.18 0.59-1.75 0.47-1.3 0.96-2.65 1.07-4.1 0.89-0.38 1.07-1.29 1.17-1.75q0.03-0.2 0.07-0.32c2.47-7.39 4.65-13.57 7.24-19.66 2.39-5.61 4.86-11.04 8.71-15.78 0.26-0.32 0.63-0.58 1.01-0.87 0.62-0.45 1.37-1 1.8-1.9h0.16q0.09-0.01 0.19-0.01 2.49-0.03 3.53 1.18 1.05 1.24 0.63 3.75-0.27 1.61-0.74 3.32c-1.9 6.87-4.05 13.86-5.94 20.03-6.73 21.9-12.68 41.13-18.2 58.81-0.24 0.76-0.53 1.56-1.06 2.27-0.13 0.18-0.36 0.35-0.6 0.53-0.61 0.46-1.6 1.21-0.82 2.6q-0.11 0.08-0.21 0.14-0.07 0.05-0.15 0.11c-0.56 0.39-1.2 0.84-1.88 1.12-1.81 0.74-2.58 2.13-2.21 4.03q0.01 0.05 0.04 0.1c0.27 0.61 0.72 0.78 1.05 0.81h0.1c4.96-0.6 10.81-0.94 16.63 1.06q2.04 0.68 3.71 2.28c1.75 1.68 1.97 3.15 0.78 5.26-1.1 1.95-2.09 3.73-3.01 5.58-1.94 3.93-3.36 7.71-4.34 11.56l-0.02 0.06c-0.05 0.21-0.18 0.71-0.29 0.79-0.03 0-0.15-0.02-0.4-0.21-3.99-3.12-8.65-3.19-12.71-3.02q-1.08 0.03-2.17 0.01c-1.12-0.02-2.27-0.04-3.42 0.1-1.07 0.13-2.69 0.33-3.13 2.07q-0.18 0.69-0.43 1.4zm-142.01 2.41c-3.53-4.61-6.42-9.7-8.59-15.12-2.09-5.22-3.56-10.91-4.37-16.89-0.08-0.58-0.06-0.88 0.05-1.04q0.18-0.22 0.85-0.3c1.13-0.14 2.28-0.2 3.4-0.25 1.2-0.05 2.44-0.11 3.65-0.27 0.84-0.12 1.68-0.33 2.5-0.54 0.78-0.2 1.58-0.4 2.38-0.52q0.26-0.03 0.39-0.03c0.19 0 0.26 0.03 0.29 0.06 0.12 0.09 0.19 0.51 0.21 0.64v0.03c0.39 2.47 0.8 5.01 1.56 7.46l-0.18 0.22c-0.09 0.12-0.13 0.28-0.09 0.42l0.06 0.24c1.35 5.37 3.36 9.96 6.14 14.02 1.42 3.05 3.59 5.54 5.69 7.95q0.26 0.3 0.52 0.6c0.29 0.34 0.68 0.52 1.1 0.52q0.34-0.01 0.7-0.16l0.55-0.25q0.21-0.1 0.26-0.32 0.06-0.22-0.08-0.41l-0.37-0.48q-0.93-1.22-1.87-2.38c-1.46-1.82-2.96-3.71-4.17-5.72-0.13-0.23-0.31-0.37-0.49-0.46q-0.02-0.34-0.2-0.67c-2.47-4.31-4.16-9.1-5.55-13.26l-0.28-0.82c-0.06-0.17-0.2-0.29-0.37-0.32q-0.03-0.01-0.07-0.01l-0.16-0.75c-0.37-1.81-0.75-3.68-1.12-5.53-0.04-0.2-0.14-0.69-0.02-0.82 0.03-0.04 0.15-0.15 0.64-0.15 0.8 0 1.6-0.16 2.36-0.31 0.42-0.08 0.86-0.17 1.28-0.22 1.45-0.19 2.17-0.15 2.57 0.17 0.41 0.33 0.63 1.04 0.77 2.54q0.09 0.81 0.2 1.6l-0.3 0.38q-0.13 0.17-0.09 0.38l0.03 0.21c0.87 4.86 2.78 9.59 5.84 14.46 0.76 1.64 1.83 3.04 2.86 4.39 0.36 0.48 0.81 1.07 1.22 1.65q0.04 0.14 0.14 0.23l0.07 0.07 0.31 0.46q0.14 0.19 0.38 0.2h0.01l4.84 4.6c0 0 0.05 0.06 0.07 0.08l0.19 0.16 0.16 0.16c0 0 0.05 0.04 0.07 0.05q0.18 0.17 0.34 0.32c0.43 0.39 0.86 0.8 1.35 1.16 8.88 6.73 18.65 10.13 29.03 10.13 2.28 0 4.62-0.16 6.95-0.49 8.93-1.25 16.73-4.36 23.17-9.24 6.35-4.82 11.52-11.45 15.36-19.73 2.2-4.74 3.13-9.7 3.87-14.39q0.38 0.02 0.76 0.05c1.33 0.1 2.71 0.21 4.07 0.22 0.29 0 0.37 0.06 0.37 0.06 0.03 0.06-0.02 0.3-0.04 0.43q-0.03 0.12-0.04 0.24c-0.25 1.73-0.55 3.48-0.83 5.18q-0.14-0.13-0.32-0.13h-0.01c-0.19 0-0.36 0.12-0.43 0.3l-0.44 1.03q-0.04 0.12-0.1 0.24c-0.1 0.22-0.22 0.47-0.29 0.76-2.07 8.11-5.8 15.26-11.1 21.26-2.98 3.37-6.41 6.43-10.18 9.07-3.57 2.5-7.57 4.72-11.89 6.6q-0.05 0.01-0.09 0.03c-4.34 1.65-8.7 2.75-12.95 3.26-4.46 0.54-8.97 0.45-13.39-0.24-4.25-0.69-8.47-1.87-12.56-3.51-3.89-1.56-7.79-3.58-11.59-6.02q-0.02-0.01-0.03-0.01l-0.05-0.03q0-0.01-0.02-0.01-0.09-0.05-0.18-0.08l-6.23-4.9q-0.18-0.14-0.4-0.09-0.22 0.05-0.32 0.25l-0.26 0.53c-0.55 1.1 0.29 1.81 0.56 2.04h0.01c0 0 0.04 0.04 0.06 0.05q0.44 0.4 0.89 0.8c1.56 1.37 3.16 2.78 5.02 3.9l0.3 0.18q0.11 0.06 0.23 0.07c7.16 4.96 15.15 8.03 23.77 9.11q0.21 0.07 0.4 0.08c2.53 0.47 5.07 0.7 7.77 0.7 2.45 0 5.05-0.2 7.73-0.59 3.75-0.55 8.08-1.31 11.99-3.31 2.82-0.71 5.26-2.06 7.92-3.61 6.91-4.01 12.69-8.98 17.18-14.75 4.45-5.71 7.74-12.36 9.81-19.78l0.03-0.03q0.07-0.09 0.12-0.2c0.87-2.79 1.27-5.59 1.56-7.96 0.02-0.24 0.08-0.67 0.17-0.74 0.02-0.01 0.13-0.08 0.6 0l0.96 0.16c3.53 0.58 7.18 1.19 10.81 1.49q0.79 0.08 1.01 0.33c0.15 0.19 0.1 0.59 0.05 1.05q-0.03 0.17-0.05 0.35c-0.55 5.32-1.76 10.53-3.6 15.49-1.8 4.86-4.26 9.61-7.3 14.12-11.53 17.11-26.96 27.37-45.84 30.49-28.5 4.71-51.93-4.59-69.63-27.64zm-18.55-66.25c3.2-0.79 6.27-1.24 8.94-1.57 9.19-1.11 18.59-1.62 27.68-2.11 3.69-0.2 7.51-0.41 11.26-0.66 15.57-1.01 31.4-0.6 46.7-0.2q1.67 0.04 3.32 0.09c8.85 0.23 18 0.54 27.99 0.96 9.64 0.41 17.45 1.36 24.58 3 2.85 0.65 5.33 2.02 7.15 3.96 1.83 1.93 2.96 4.38 3.29 7.09 0.23 1.92-0.33 3.72-0.91 5.62q-0.35 1.08-0.63 2.2c-0.25 1.06-0.54 2.13-0.82 3.17-0.44 1.62-0.89 3.3-1.23 4.98-0.39 1.91-0.67 3.89-0.94 5.8q-0.15 1.02-0.3 2.07-0.01-0.02-0.02-0.03-0.13-0.16-0.32-0.3c-4.96-3.71-10.99-4.69-16.32-5.55-13.33-2.17-26.99-2.53-40.2-2.88-2.82-0.07-5.73-0.15-8.59-0.24-2.19-0.07-4.42-0.16-6.58-0.24-5.51-0.22-11.22-0.44-16.83-0.43-11.61 0.02-23.6 0.73-35.64 2.11-3.01 0.35-6.08 0.66-9.05 0.96-5.27 0.54-10.71 1.09-16.05 1.85-6.72 0.96-12.44 2.65-17.48 5.17q-0.15 0.07-0.34 0.13c0.26-2.17 0.32-4.27 0.37-6.31q0.03-0.94 0.06-1.89c0.21-5.66-0.25-11.5-1.39-17.84-0.55-3.05-0.11-3.95 2.57-5.34 3.19-1.67 6.52-2.79 9.73-3.57zm6.96-51.17c1.12-0.76 2.36-0.81 3.74-0.8q0.72 0.01 1.43 0.05c1.41 0.07 2.86 0.14 4.35-0.29q3.11-0.89 4.14-2.85c0.65-1.26 0.66-2.86 0.01-4.74-0.41-1.18-0.87-2.34-1.35-3.57q-0.17-0.41-0.33-0.84c2.63 0.96 5.03 2.18 7.36 3.36l0.37 0.19c6.71 3.4 12.99 3.88 19.18 1.47 3.6-1.39 5.73-3.41 6.71-6.35 0.08-0.26 0.13-0.36 0.16-0.4q0.05-0.01 0.36 0.11c3.8 1.68 7.43 2.03 11.1 1.06 3.16-0.84 6.28-2.65 9.56-5.53 0.97-0.87 1.4-0.91 2.39-0.23 2.83 1.92 5.81 1.71 8.86-0.61q0.81-0.62 1.58-1.26c1.35-1.09 2.74-2.22 4.33-3q0.52 1.98 1.03 3.96c1.81 7 3.69 14.23 5.85 21.25q0.16 0.49 0.35 0.93c0.83 1.98 1.25 2.97 1.05 3.71-0.2 0.74-1.08 1.44-2.84 2.85l-0.06 0.05c-6.57 5.26-14.31 9.2-24.36 12.4-12.14 3.86-24.54 5.71-35.06 7.01-1.17 0.15-2.37 0.28-3.53 0.4-3.15 0.34-6.41 0.69-9.57 1.41q-2.77 0.62-5.21 2.26c-0.39 0.26-0.55 0.3-0.6 0.3-0.1-0.1-0.24-0.53-0.3-0.7-1.48-4.34-3.01-8.74-4.48-13-1.14-3.27-2.31-6.66-3.45-9.99-0.9-2.6-2.18-4.99-3.2-6.78-0.49-0.86-0.4-1.27 0.43-1.83zm17.99 33.58c3.66-0.63 7.37-0.88 11.3-1.15q2.02-0.14 4.12-0.3l-0.9 1.06c-0.16 0.19-0.15 0.47 0.03 0.65 0.18 0.18 0.46 0.19 0.65 0.02 2.42-2.11 5.35-2.43 8.44-2.77q1.17-0.12 2.35-0.29c11.33-1.69 20.44-4.16 28.65-7.76 2.76-1.21 5.36-1.4 8.19-0.59 1.78 0.51 3.6 1.04 5.36 1.56q0.74 0.21 1.49 0.44v0.08c-0.01 0.2 0.11 0.39 0.3 0.46l0.31 0.13c5.14 2.08 9.89 4.82 14.09 8.14 3.98 3.15 7.6 6.9 10.76 11.16q-0.03 0-0.05-0.01-0.3-0.05-0.61-0.06-3.54 0.03-7.12-0.53l-0.28-0.32c-1.99-2.26-4.19-4.61-7.08-6.29-5.59-4.14-11.57-7-17.76-8.49-6.25-1.51-12.89-1.67-19.74-0.48-4.89 0.8-9.51 2.34-13.74 4.58-1.74 0.79-3.56 1.71-5.18 3.12-3.24 2.08-5.93 4.4-8.21 7.1l-0.21 0.25q-0.14 0.17-0.11 0.38-0.42 0.14-0.94 0.17c-2.07 0.12-4.11 0.23-6.27 0.36l-1.55 0.08 1.19-2.06c0.09-0.16 0.09-0.36-0.02-0.51l-0.32-0.46c-0.11-0.15-0.28-0.23-0.46-0.2-0.17 0.02-0.32 0.14-0.39 0.3-1.21 3.26-3.62 3.33-6.4 3.4q-0.59 0.02-1.2 0.05c-2.7 0.15-5.38 0.37-8.22 0.6q-1.47 0.12-3.02 0.25 0.39-0.68 0.77-1.32c0.84-1.42 1.62-2.76 2.28-4.15 1.67-3.58 4.87-5.8 9.51-6.6zm111.39 12.13c-3.03-0.24-6.15-0.49-9.19-0.84q-0.63-0.07-1.27-0.06h-0.29c-1.05 0.01-2.04 0.01-2.89-0.48q0.08-0.21-0.04-0.42l-0.18-0.3c-2.4-3.89-5.62-7.5-9.83-11.04-5.49-4.62-10.96-7.8-16.72-9.74l-0.6-0.2q-0.23-0.07-0.43 0.06-0.09 0.06-0.14 0.16c-2.75-1.12-5.69-1.74-8.54-2.33q-0.34-0.08-0.7-0.15 0.4-0.27 0.85-0.47 0.32-0.16 0.63-0.34c4.04-2.42 8.05-5.33 12.25-8.89 0.74-0.62 1.24-0.71 2.08-0.37 8.62 3.52 16.19 8.3 22.5 14.19 6.35 5.92 11.61 13.15 15.64 21.48q-1.59-0.14-3.13-0.26zm-32.3-6.37l4.67 4.61c-0.36-0.01-0.74-0.08-1.12-0.14q-0.6-0.12-1.22-0.16c-10.97-0.46-21.45-0.69-31.6-0.69-9.32 0-18.35 0.2-27.23 0.58q-0.13-0.16-0.35-0.17l-3.32-0.18c1.63-1.67 3.44-3.08 5.2-4.44q0.53-0.42 1.04-0.82c1.64-1.18 3.41-2.12 4.92-2.89 3.96-1.9 8.25-3.33 13.12-4.37 0.25-0.01 0.47-0.07 0.63-0.12q0.04-0.02 0.08-0.03h0.09q0.2-0.03 0.39-0.02 0.56-0.01 1.14-0.06c5.62-0.66 11.12-0.34 16.33 0.96 5.14 1.29 10.15 3.55 14.91 6.75q0.18 0.12 0.38 0.27c0.5 0.37 1.11 0.83 1.94 0.92zm50.68 60.72v-0.32q0.11-0.07 0.21-0.13 0.54-0.33 1.08-0.67c-0.61 1.75-1.08 3.56-1.54 5.32-0.32 1.21-0.64 2.46-1.01 3.67l-0.04 0.11c-0.35 0.35-0.54 0.82-0.69 1.24-0.21 0.59-0.28 0.56-0.43 0.5q-0.03 0-0.04-0.02c-0.01-0.06 0.03-0.22 0.05-0.32q0.03-0.15 0.05-0.31 0.01-0.13 0.04-0.27c0.08-0.51 0.19-1.2-0.35-1.76-0.33-0.34-0.66-0.36-0.94-0.28q0.01-0.14-0.01-0.26c0.18 0.07 0.38 0.01 0.5-0.16l1.45-2.15c0.77-1.14 1.59-2.5 1.67-4.19zm-43.15 5.65q-0.01 0-0.02 0.02c-1.99 0.43-3.15 1.79-4.17 2.99-0.54 0.65-1.06 1.26-1.67 1.7q-0.03 0.02-0.06 0.04h-0.02q-1.1 0.76-0.75 1.77 0 0.06 0.02 0.08-0.05 0.06-0.15 0.1c-1.08-0.34-1.79 0.26-2.18 0.59q-0.16 0.13-0.26 0.2c-1.26 0.7-2.44 1.45-3.19 2.91q-0.07-0.01-0.18-0.04c-0.42-0.1-1-0.23-1.55 0.06-3.93 2.08-8.43 3.78-14.15 5.35-1.42-0.2-2.78-0.02-4.1 0.15-0.71 0.09-1.44 0.19-2.15 0.21-5.52 0.21-10.92-0.87-15.93-2.07-0.99-0.6-2.05-0.93-3.07-1.24-0.9-0.28-1.75-0.54-2.51-0.97-3.17-1.82-6.37-3.93-9.52-6.27l-5.98-5.7c-0.75-1.49-1.72-2.81-2.67-4.09-0.33-0.45-0.71-0.97-1.07-1.47l-6.04-14.91q-0.09-0.2-0.29-0.27-0.2-1.5-0.46-3.02c-0.05-0.29-0.04-0.51 0.03-0.59 0.07-0.09 0.29-0.14 0.59-0.15 2.06-0.08 4.15-0.23 6.17-0.37 2.98-0.22 6.06-0.44 9.09-0.41q0.01 0 0.03-0.01c13.73-0.8 28.11-0.99 43.98-0.58q2.37 0.05 4.71 0.08c3.9 0.04 7.94 0.09 11.89 0.49h0.06c2.66-0.07 5.37 0.09 7.99 0.24 2.04 0.12 4.15 0.24 6.24 0.26 0.75 0 1 0.14 1.09 0.25 0.07 0.1 0.13 0.36-0.04 0.99q-0.09 0.32-0.15 0.64-0.2 0.09-0.27 0.31l-0.44 1.52q-0.1 0.34-0.2 0.68-0.21 0.72-0.42 1.47c-0.58 2.11-1.43 4.18-2.25 6.18-0.6 1.47-1.21 2.98-1.74 4.52q-0.34 0.56-0.67 1.12-0.83 1.42-1.7 2.81c-0.26 0.41-0.56 0.83-0.84 1.23q-0.52 0.7-0.99 1.46c-0.57 0.92-0.27 1.48-0.04 1.74zm-119.06-13.76c0.1-2.28 0.14-3.43 0.64-4.04 0.49-0.61 1.59-0.88 3.76-1.41h0.01q0.63-0.15 1.26-0.32c1.75-0.44 3.56-0.9 5.52-1.09-0.03 5.3 0.08 10.52 1.3 15.87q-0.5-0.28-1-0.56c-1.47-0.81-2.86-1.58-4.29-2.32q-2.2-1.14-4.66-2.19c-2.09-0.9-2.63-1.74-2.54-3.94zm150.15 10.54q0.18-0.55 0.34-1.07 0.68-2.09 1.26-4.05 0.56-1.95 1.07-3.87 0.34-1.27 0.7-2.56l0.02-0.09c0.2-0.71 0.35-1.08 0.62-1.08h0.02c0.16 0.01 0.27 0.66 0.31 0.94q0.02 0.12 0.04 0.22c0.06 0.35 0.17 0.69 0.31 1.12q0.1 0.33 0.23 0.74c0.06 0.2 0.24 0.34 0.46 0.34 0.22 0 0.39-0.14 0.46-0.34v-0.04l0.01 2.31c0 0.22 0.14 0.41 0.34 0.46 0.21 0.06 0.43-0.02 0.54-0.2 1.13-1.79 0.97-3.49 0.84-5q-0.01-0.08-0.02-0.15c0.47 1.48 0.65 3.18 0.59 5.32-0.01 0.23 0.15 0.43 0.37 0.48 0.22 0.05 0.45-0.06 0.55-0.27 0.6-1.32 0.8-2.52 0.79-3.66 0.17 1.42 0.23 2.87-0.01 4.35-0.03 0.21 0.07 0.42 0.26 0.51 0.19 0.09 0.42 0.05 0.56-0.1l0.65-0.69c0.27 1-0.07 1.54-1.15 2.02-2.5 1.13-5.02 2.19-7.69 3.31q-1.21 0.51-2.47 1.05zm20.2 13.18c-0.04-1.15 0.25-1.47 1.32-1.51q1.35-0.06 2.66-0.13 0.59-0.03 1.16-0.06 3.43-0.06 6.73 0.67c0.47 0.1 0.6 0.21 0.62 0.24 0 0.03-0.03 0.18-0.29 0.48q-0.56 0.67-1.07 1.32c-0.87 1.09-1.76 2.21-2.81 3.14-0.27 0.23-0.56 0.2-1.05 0.12q-0.1-0.02-0.2-0.03-0.94-0.14-1.86-0.3-0.95-0.15-1.92-0.3c-1.63-0.24-2.52-0.37-2.87-0.74-0.33-0.35-0.36-1.16-0.41-2.65 0 0 0-0.25-0.01-0.25zm-172.95-161.36c4.21-6.05 8.94-12.26 16.29-15.94 2.64-1.32 5.27-2.02 7.83-2.08 2.64-0.07 5.3 0.53 7.9 1.78q2.6 1.26 5.16 1.06 2.53-0.22 4.93-1.81 0.6-0.41 1.19-0.81c4.28-2.89 8.7-5.89 14.09-6.54q0.58-0.07 1.12-0.16c0.87-0.12 1.77-0.25 2.64-0.26 11.73-0.17 24.32 0.06 36.85 2.93 4.27 0.98 7.96 2.36 11.27 4.23 2.9 1.63 4.86 3.53 5.99 5.81 1.18 2.36 1.42 5.08 0.75 8.29-1.29 6.21-4.17 11.06-8.8 14.84-1.1 0.9-2.46 1.43-3.76 1.89q-0.14 0.04-0.33 0.09c-0.46 0.11-1.43 0.36-1.27 1.31q0.09 0.5 0.44 0.75c0.41 0.29 0.91 0.19 1.32 0.12q0.21-0.05 0.35-0.05c4.33-0.17 7.55-2.66 10.23-4.97 2.72-2.36 4.51-5.49 5.45-9.57q0.04-0.16 0.05-0.3 0-0.03 0.01-0.05c2.2 3.31 4.04 6.41 4.75 10.08 0.29 1.47-0.14 2.51-1.41 3.48-1.18 0.89-2.48 1.67-3.73 2.42-1.05 0.63-2.15 1.28-3.17 2-2.23 1.57-3.9 3.33-5.13 5.38-0.56 0.95-0.9 1.09-1.05 1.09-0.08 0-0.21-0.04-0.39-0.21-0.18-0.17-0.42-0.46-0.71-0.98q-0.39-0.69-0.76-1.37-0.49-0.9-1.01-1.79c-1.03-1.71-2.56-2.86-4.3-3.23-1.71-0.36-3.52 0.05-5.1 1.16-1.07 0.75-2.07 1.61-3.04 2.44q-0.63 0.55-1.28 1.1c-1.39 1.14-2.91 1.62-4.28 1.33-1.37-0.29-2.57-1.33-3.37-2.92-0.63-1.24-0.9-2.57-1.19-3.97q-0.1-0.52-0.22-1.04c-1.2-5.34-4.21-9.24-8.94-11.59-3.6-1.78-7.19-4.1-10.98-7.08q-0.04-0.03-0.1-0.08c-0.37-0.29-0.83-0.67-1.52-0.65-0.22 0-0.41 0.15-0.46 0.36-0.27 1.08 0.31 1.8 0.77 2.37q0.15 0.19 0.28 0.37c2.8 3.85 6.64 6.57 10.36 9.19l0.47 0.34c2.75 1.94 4.76 4.25 6.16 7.08q0.51 0.99 1.01 1.96 0.33 0.62 0.66 1.26v0.02c0.69 1.33 1.06 2.06 0.98 2.58-0.09 0.51-0.64 1.07-1.78 2.2q-3.23 3.21-6.8 4.43-3.79 1.31-8.04 0.36c-2.65-0.59-4.15-2.2-4.47-4.77-0.61-4.95-3.26-8.71-7.88-11.18-1.17-0.63-1.29-0.62-2.78-0.55h-0.1q-0.27 0.04-0.4 0.25c-0.08 0.14-0.08 0.32 0 0.46q0.11 0.21 0.21 0.44c0.15 0.34 0.31 0.7 0.58 0.99 2.71 2.9 4.45 6.49 6.13 9.97q0.73 1.53 1.51 3.07c1.18 2.28 0.53 4.42-1.82 6.05-3.32 2.29-7.08 3.18-11.5 2.72-3.72-0.39-7.1-1.9-9.91-3.32-2.09-1.06-4.3-1.9-6.2-2.6q-0.12-0.04-0.24-0.09c-0.58-0.22-1.24-0.46-1.87-0.5 0.17-2.35-1.86-5.2-4.58-6.28-4.79-1.9-10.23-4.06-15.88-5.38-3.33-0.78-6.33-3.7-7.85-7.64-1.44-3.77-1.19-7.61 0.67-10.29zm14.41 45.02c-1.57 1.61-3.78 2.74-6.21 3.19-2.41 0.45-4.82 0.19-6.79-0.74q-1.72-0.8-1.91-2.54c-0.1-0.82-0.05-1.28 0.14-1.51 0.2-0.23 0.66-0.35 1.51-0.38 4.51-0.18 7.62-1.04 10.06-2.78 2.31-1.65 4.17-4.11 6.41-8.49q0.03-0.05 0.05-0.1c0.19-0.35 0.42-0.8 0.26-1.25q-0.13-0.39-0.58-0.6-0.27-0.12-0.52-0.12c-0.6 0-1.03 0.5-1.31 0.82q-0.07 0.08-0.13 0.14c-3.73 4.16-8.44 7.07-14.4 8.9-2.66 0.81-5.14 0.6-7.6-0.66-3.37-1.73-4.62-4.92-3.73-9.47 0.79-3.99 2.21-7.87 3.59-11.62 0.48-1.33 0.99-2.7 1.46-4.06q0.44-1.25 0.93-2.55 0.03-0.09 0.06-0.17 0.05 0.18 0.08 0.38 0.04 0.21 0.1 0.44c1.63 6.43 5.92 10.33 12.74 11.59 3.4 0.63 6.85 1.14 9.82 1.58 3.13 0.46 5.49 1.84 7.2 4.24q0.06 0.09 0.14 0.21c0.11 0.17 0.24 0.38 0.43 0.56q-0.01 0.01-0.03 0.03c-0.79 0.7-0.4 1.58-0.11 2.22q0.09 0.19 0.17 0.39c-2.06-0.49-3.91-0.53-5.64-0.13q-0.12 0.03-0.29 0.06c-0.52 0.09-1.51 0.26-1.55 1.33-0.03 1.05 0.89 1.17 1.34 1.23q0.2 0.02 0.33 0.06c1.91 0.56 3.58 1.7 5.2 2.8q0.49 0.32 0.97 0.65c1.04 0.7 1.5 1.79 1.25 3.01-0.15 0.77-0.63 0.87-1.68 0.9q-0.27 0.01-0.55 0.03c-1.69 0.16-3.43 0.19-5.11 0.22q-0.49 0-0.99 0.01c-2.04 0.04-3.71 0.75-5.11 2.18zm-19.88 111.24q0.03 0.72-0.19 0.91c-0.17 0.14-0.53 0.11-0.81 0.06q-1.66-0.29-3.5-0.35c-0.83-0.03-1.68-0.16-2.51-0.28-1.75-0.26-3.57-0.54-5.43 0.08q-0.07 0.02-0.13 0.06 0 0.01-0.01 0.01l-6.71-0.71q-0.01 0-0.06 0c-3.16 0.07-5.82 0.86-8.12 2.41q-0.05-0.18-0.05-0.31c0.22-6.49-0.91-13.23-3.56-21.2-0.58-1.72-0.98-3.39 0.31-4.96q0.05-0.07 0.08-0.15 0.16 0 0.28-0.09c2.38-1.8 5.15-2.68 8.22-2.64 0.86 0.59 1.82 0.54 2.67 0.5q0.14 0 0.28-0.01c4.14-0.17 8.29 0.43 12.32 1l0.18 0.03c1.43 0.2 2.08 0.8 2.4 2.22q0.4 1.75 0.79 3.49c1.04 4.56 2.11 9.26 3.05 13.92 0.38 1.89 0.44 3.75 0.5 5.73v0.29zm-56.29 0.73c0.19-0.05 0.33-0.21 0.36-0.41 0.02-0.19-0.08-0.38-0.25-0.47-4.57-2.43-8.38-5.08-11.66-8.11-3.11-2.86-5.66-5.99-7.75-9.51 3.99 2.44 8.28 4.34 13.05 5.77 4.79 1.44 9.97 2.38 15.84 2.88 1.47 0.17 2.06 0.22 3.52 0.32h0.02c4.17 0.12 7.81-0.02 11.12-0.46 0.8-0.1 1.26 1.43 1.57 2.44q0.12 0.43 0.23 0.73 0.08 1.05 0.15 2.09c0.17 2.39 0.35 4.86 0.5 7.29 0.02 0.29-0.07 0.63-0.16 0.96-0.45 1.53-0.33 2.87 0.34 3.87 0.68 1.03 1.91 1.67 3.57 1.85 1.44 0.16 3.07 0.35 4.68 0.4 0.57 0.01 0.61 0.05 0.64 0.62q0.04 0.66 0.01 1.34c-0.02 0.86-0.03 1.75 0.19 2.67q0.01 0.03 0.01 0.05c-0.15 0.01-0.43-0.04-0.58-0.06q-0.18-0.03-0.35-0.05c-4.12-0.33-7.74-0.66-11.06-1.01l-1.33-0.14c-8.03-0.84-16.34-1.72-24.35-3.58-10.7-2.5-19.06-5.76-26.22-10.25q1.39 0.21 2.73 0.42c8.18 1.29 16.63 2.61 25.18 0.35zm14.13-65.02c0.66 2.08 1.34 4.23 2.03 6.33 0.33 0.97 0.81 1.91 1.21 2.67 0.62 1.2 1.38 1.25 1.91 1.07 0.87-0.28 0.94-1.28 0.96-1.7 0.19-2.89-0.34-5.71-0.86-8.45q-0.01-0.1-0.04-0.22c0.41 1.48 0.7 2.97 0.97 4.41 0.18 1.02 0.46 1.94 0.85 2.84q0.05 0.12 0.1 0.26c0.23 0.57 0.56 1.44 1.67 1.44 0.64 0 1.01-0.25 1.24-0.58 0.23-0.33 0.32-0.74 0.38-1.04q0.04-0.21 0.1-0.37c0.38-1.15 0.2-2.34-0.05-3.45-0.77-3.42-1.4-6.42-1.93-9.23 2.3 4.28 4.24 8.76 5.78 13.34 1.79 5.35 2.42 10.77 1.91 16.57-0.34 3.78 0.29 7.55 0.91 10.79 0.15 0.79 0 0.83-0.64 1.01q-0.19 0.06-0.4 0.13l-0.08 0.03c-0.39 0.13-0.75 0.25-0.92 0.17-0.07-0.04-0.22-0.18-0.37-0.67-0.54-1.79-1.26-3.55-1.95-5.25q-0.27-0.67-0.55-1.36c-0.7-1.75-1.89-3.12-3.64-4.18-2.37-1.44-4.21-3.26-5.46-5.42-1.23-2.11-1.95-4.63-2.13-7.46-0.22-3.44-0.55-6.92-0.87-10.29q-0.06-0.7-0.13-1.39zm54.67 76.17c0.66 1.27 0.48 2.78-0.61 4.89-0.6 1.18-0.93 2.12-0.6 2.92 0.32 0.8 1.22 1.24 2.46 1.65 0.04 0.03 0.11 0.13 0.16 0.2l0.18 0.21c3.55 3.85 5.03 8.44 4.42 13.65-0.12 1.05 0.2 1.79 0.6 2.59 1.26 2.5 1.39 4.33 0.46 6.14q-0.01 0.04-0.04 0.07c-0.1 0.15-0.27 0.43-0.11 0.72 0.79 1.41 0.17 2.15-0.89 3.23-0.38 0.39-0.76 0.78-1.05 1.23q-0.01 0.01-0.03 0.04c-1.41-0.46-1.9 0.66-2.15 1.21q-0.02 0.06-0.05 0.11c-1.88-0.41-2.83-1.8-3.83-3.27-0.39-0.57-0.79-1.15-1.24-1.68q-0.03-0.06-0.06-0.13c-0.1-0.24-0.25-0.59-0.63-0.67q-0.38-0.08-0.73 0.28c-0.4 0.39-0.59 0.4-0.64 0.39-0.2-0.02-0.43-0.41-0.59-0.69q-0.12-0.21-0.26-0.4c-0.47-0.66-0.85-1.64 0.01-2.56 1.13-1.22 0.64-3.27-0.47-4.47-1.83-1.99-2.84-3.99-3.08-6.11-0.08-0.71-0.03-1.42 0.02-2.18 0.05-0.83 0.1-1.68-0.02-2.54 0.2-0.19 0.3-0.53 0.38-0.82 0.27-0.94 0.48-1.9 0.67-2.83q0.03-0.16 0.07-0.31 0.06 0.14 0.17 0.29c0.17 0.2 0.47 0.23 0.67 0.06q0.05-0.03 0.09-0.06c0.1-0.07 0.28-0.19 0.34-0.43 0.17-0.76 0.31-1.57 0.22-2.38q0.03 0.02 0.06 0.02 0.08 0.03 0.14 0.03 0.22 0 0.36-0.16l0.7-0.79c0.27-0.3 1.08-1.21 0.67-2.16-0.38-0.9-1.46-1.07-2.47-1.11l-1.55-0.06c-0.21-0.01-0.4 0.12-0.47 0.32q-0.05 0.12-0.02 0.24c-0.77-1.04-1.02-2.45-1.15-3.64-0.26-2.41-0.21-4.88-0.16-7.27 0.03-1.31 0.06-2.67 0.03-4-0.08-4.94-1.14-9.75-2.15-14.41q-0.21-0.95-0.41-1.89c-0.6-2.77-1.17-5.6-1.72-8.34-1.65-8.17-3.35-16.62-5.95-24.74-0.78-2.44-2.03-5.09-5.38-6.19-1.73-0.57-2.37-2.17-3.04-3.87l-0.09-0.22c-1.1-2.77-1.57-5.75-2.02-8.64-0.16-1.05-0.33-2.14-0.53-3.21-1.71-9.16-3.32-18.5-4.86-27.53l-0.35-2.02q-0.07-0.39-0.14-0.79c-0.18-0.98-0.35-1.93-0.4-2.88q0.1 0.5 0.21 1.01c0.6 2.85 1.23 5.79 1.81 8.7 0.41 2.06 0.81 4.16 1.19 6.19 1.16 6.16 2.36 12.52 4.23 18.64 0.41 1.34 0.98 2.63 1.54 3.88l0.11 0.25c0.42 0.95 1.28 1.37 2.15 1.05 0.9-0.33 0.72-1.2 0.64-1.57q-0.03-0.15-0.05-0.26c-0.4-4.47-1.14-8.96-1.86-13.31-0.2-1.22-0.41-2.5-0.61-3.74-0.74-4.67-1.54-9.4-2.31-13.98q-0.03-0.14-0.05-0.27c1.62 7.13 2.94 14.35 4.22 21.39q0.39 2.14 0.79 4.28c0.32 1.74 0.96 3.31 1.55 4.61l0.03 0.08c0.2 0.45 0.56 1.26 1.4 1.26q0.14 0 0.29-0.03 1.11-0.23 1.11-1.86 0.01-0.65 0.03-1.29c0.05-1.41 0.09-2.87-0.32-4.35-2.64-9.53-4.52-19.58-5.57-29.93 0.67 2.51 1.24 5.04 1.8 7.52q0.4 1.81 0.84 3.64c0.72 3.07 1.37 6.22 1.99 9.27 0.89 4.37 1.81 8.9 3 13.29 0.2 0.71 0.48 1.4 0.77 2.03q0.03 0.07 0.06 0.14c0.17 0.41 0.57 1.36 1.53 1.04 0.83-0.27 0.89-1.33 0.92-1.73 0.17-2.76-0.37-5.45-0.88-8.05q-0.25-1.22-0.47-2.47c-1.23-7.13-2.52-14.38-3.77-21.39q-0.38-2.08-0.75-4.18 0.08 0.36 0.18 0.73l0.36 1.48c2.79 11.18 5.67 22.73 7.59 34.29 0.38 2.29 0.62 4.65 0.86 6.94l0.04 0.44c0.13 1.23-0.18 2.19-1 3.13-2.82 3.24-2.48 7.15-1.87 10.19 0.49 2.44 0.98 4.93 1.45 7.33 0.91 4.59 1.84 9.33 2.82 13.99 0.24 1.13 0.02 2.17-0.22 3.26q-0.03 0.15-0.06 0.3c-0.24 1.15-0.44 2.8 0.61 3.92 1.85 1.97 2.34 4.39 2.86 6.95q0.19 0.99 0.43 1.99c1.84 7.51 4.27 14.1 7.44 20.16z"/>
	</g>
</svg>